<?xml version="1.0" standalone="no"?>
<!DOCTYPE svg PUBLIC "-//W3C//DTD SVG 20010904//EN"
 "http://www.w3.org/TR/2001/REC-SVG-20010904/DTD/svg10.dtd">
<svg version="1.0" xmlns="http://www.w3.org/2000/svg"
 width="330.000000pt" height="330.000000pt" viewBox="0 0 330.000000 330.000000"
 preserveAspectRatio="xMidYMid meet">
<metadata>
Created by potrace 1.11, written by Peter Selinger 2001-2013
</metadata>
<g transform="translate(0.000000,330.000000) scale(0.100000,-0.100000)"
fill="#000000" stroke="none">
<path d="M1265 2858 c-301 -34 -599 -149 -824 -318 -59 -45 -87 -60 -113 -60
-32 -1 -32 -1 -10 -13 22 -13 22 -13 -19 -52 -115 -112 -239 -323 -275 -470
-27 -105 -24 -305 5 -410 117 -429 547 -776 1097 -885 158 -32 416 -38 594
-15 187 24 200 23 289 -29 146 -86 284 -134 466 -161 119 -18 200 -19 280 -4
52 9 135 42 135 53 0 2 -37 29 -83 59 -142 95 -270 245 -291 343 -6 28 -2 34
72 96 178 149 299 331 353 533 31 114 31 316 0 430 -38 141 -123 300 -218 406
-39 43 -44 52 -32 64 22 20 258 150 423 231 81 41 143 74 136 74 -7 0 -68 -11
-135 -25 -140 -28 -307 -77 -460 -135 l-106 -39 -75 50 c-334 224 -777 326
-1209 277z"/>
</g>
</svg>
