<svg id="Layer_1" data-name="Layer 1" xmlns="http://www.w3.org/2000/svg" viewBox="0 0 2000 2000"><defs><style>.cls-1{fill:#414143;}.cls-1,.cls-4,.cls-5{fill-rule:evenodd;}.cls-2,.cls-5{fill:#3ab550;}.cls-3{fill:#bcbec1;}.cls-4{fill:#6c6d70;}</style></defs><title>Check point</title><path class="cls-1" d="M466.93,1060.41h0v107.12h18.78v-38.47c0-11.38,7.66-20.61,18.8-20.61,10,0,17.3,5.79,17.3,19.51v39.57h19V1127.8c0-22.21-9.66-36.68-31.17-36.68-8.76,0-17.15,2.54-23.89,11.38v-42.09ZM573,1121.11h0c2.73-9.75,10.92-14.63,21.15-14.63,10.92,0,18.58,4.88,19.88,14.63Zm59.06,15.53h0c2.91-31.05-13-46.78-38.48-46.78-24.77,0-40.46,16.62-40.46,39.55,0,24,15.68,40.11,41.94,40.11,11.49,0,24.61-4,32.62-12.11l-12-11.93c-4.36,4.53-13.49,7.05-20.41,7.05-13.3,0-21.31-6.67-22.59-15.89Zm67.08,9h0c-4.56,4.69-10.57,6.32-16.58,6.32-11.86,0-21.69-7.58-21.69-22,0-13.21,9.29-22.4,21.86-22.4a22.35,22.35,0,0,1,15.32,6.14l11.86-12.48c-8.21-8.13-16.6-11.2-27.34-11.2-22.06,0-40.48,13.19-40.48,39.93s18.42,39.9,40.48,39.9c11.1,0,20.41-3.43,29.34-11.93Zm20.6-84.87h0v106.74h18.76v-34l29.72,34H791v-1.26l-35.36-38.65,31-34.32v-1.08H764.26l-25.73,30.34v-61.76Zm121.94,90.66h0c-12.77,0-21.51-9.75-21.51-21.48s8-21.34,21.51-21.34c13.67,0,21.69,9.57,21.69,21.34s-8.76,21.48-21.69,21.48Zm2,18.07c-8,0-19.84-2.52-25.14-10.85v40.46h-19V1092.21h17.68l1.28,10.49c5.83-8.49,16.05-12.11,24.61-12.11,17,0,29.92,9,35.73,22.47l-.09,0a39.58,39.58,0,0,1,3.32,15.93c.07,22.56-13.16,40.5-38.42,40.5Zm-399.19-29.26c-7.09,7.05-17.66,10.83-27.16,10.83-26.61,0-37-18.6-37.18-36.32s11.1-37,37.18-37c9.49,0,19,3.09,26.06,9.94l13.67-13a56.17,56.17,0,0,0-39.73-16.26c-39,0-57.43,28.37-57.24,56.34S377.25,1170,417.36,1170c15.68,0,29.9-5.06,41-15.89Zm505.69-32.68h0c12.59,0,20.6,11,20.6,22.4s-6.91,22.21-20.6,22.21c-13.85,0-20.78-10.67-20.78-22.21s7.11-22.4,20.78-22.4Zm126.63,128.24h0c34.26,10.1,18.6,58-13.3,49.49-11.49-3.09-22.63-15.55-18.43-31.05,3.28-11.76,15.87-23.13,31.74-18.43Zm-2.38,3.8h0c28.25,5.57,20.06,47.66-8.21,42.43a21.7,21.7,0,0,1-17.3-25.67,21.41,21.41,0,0,1,25.51-16.77ZM910.83,1133.39h0a11.9,11.9,0,0,1-2.91,5.08c0,16.06-1.83,26.71,7.11,40.26a43.1,43.1,0,0,0,35.55,19.14c23.51.18,41.74-18.41,43.21-38.84.35-5.06-.38-13.37-.18-20a10.59,10.59,0,0,1-3.83-7.42c-.73,21-15.5,37.76-39.56,37.76-23.33,0-37.91-15.89-39.38-35.95Zm44.1,80.74h0c-.16,16.42.38,11.91-2.71,14.08-1,15.31-1.19,30.18.62,43.53,8.94,66.84,79.78,79.1,111.22,16.79-2-1.44-6-2.14-8.74-4-25.16-16.26-12.94-51.84,13.67-52.55,33.18-1.08,42.47,44.79,8.92,55.81-29.24,70.48-120.26,76-136.66-12.48-3.1-17.15-2.55-29.45-3.1-47.13-3.81-2.36-3.28,4-3.28-16.44-16.75-6.69-25.87-12.64-33.72-26.91-7.48-13.55-7.84-28.37-7.48-45.14-7.2-5.44-4.86-19.89,6.39-19.89a11,11,0,0,1,10.57,8c1.08-20.61,15.85-37.21,39.38-37.21,24,0,39.73,17.7,39.73,39a11.06,11.06,0,1,1,18.21,9.57c.18,8.86-.16,22-.53,25.48-2.57,17.15-12.22,32.33-27,41-9.11,5.41-13.85,6.14-25.52,8.49Zm63.45-143.23h0c0,14.63,22.24,14.63,22.24,0,0-14.45-22.24-14.45-22.24,0Zm20.6,21h0v75.68h-19v-75.68Zm91.67,75.68h0V1128c0-23.66-14.2-37-32.25-37-9.49,0-17.13,3.8-25,11.38l-1.26-10.28H1055.4v75.5h18.74v-38.47c0-11.38,7.86-21.14,19.33-21.14,12,0,18.42,8.68,18.42,20.22v39.38Zm20.8-94.66h0v19.51h-14.24v16.08h14.24V1141c0,18.78,10.76,28.15,27.32,27.44a38.07,38.07,0,0,0,15.5-3.07l-5.28-15.89a22.67,22.67,0,0,1-9.13,2.16c-5.83,0-9.84-3.43-9.84-10.63v-32.53h21.15v-16.08h-21v-21.48Z"/><path class="cls-2" d="M1328.6,1128.45l-52.73-66.6h-16.45v107.43h20.3v-72.45l56.56,72.45h12.61V1061.85H1328.6Zm91-68.59c-37.2,0-55.34,28.35-55.34,56.56s17.52,55.31,55.34,55.31,54.88-27.73,55.19-55.48c.31-28-18.14-56.39-55.19-56.39Zm0,18.4c25.38,0,35.51,20.22,35.2,38.31-.29,17.63-9.82,36.63-35.2,36.63s-34.89-18.85-35.35-36.48c-.48-18.08,10-38.45,35.35-38.45Zm220.28-16.4h-22.74l-24.61,77.49-26.9-77.49h-13.21l-26.13,77.49-25.38-77.49h-22.74l39.51,107.43h17.21l13.06-33.47,11.23-34.21,11.38,33.9,13.38,33.78h17.21Z"/><path class="cls-3" d="M806.08,712.22c55.79-2.67,134.53,44.7,146.64,102.21,59-45.76,156-121.48,278.31-137.66-99.5,44.46-220.12,128.09-282.71,192L928.6,885.87l-6.12-25.32C899,762.43,843.91,729.19,806.08,712.22Z"/><path class="cls-4" d="M821.23,712.66c69.87-61,194.54-73.95,285-19.49a199.92,199.92,0,0,1,19,13c-72.89,30.71-131.78,76.61-172.53,108.23C941.67,762,875.17,718,821.23,712.66Z"/><path class="cls-5" d="M1120.61,929.83c1,19.55,21.71,38.56,35.77,49.39,7,5.35,11.93,6.63,18.16,11.65-23.51,17.68-81.37,6.81-114.32-9.43-12.33-6.06-18.27-15.4-35.05-12.29-188.68,34.91-335.43-133.33-208.8-252.09C853.31,735.51,901,771,922.48,860.55l6.12,25.32,19.72-17.15c44.93-45.83,119.78-101.86,195.24-146.28,59.68,61,56.36,150.38-22.94,207.41Z"/></svg>