<?xml version="1.0" encoding="UTF-8"?>
<svg id="logo_original" data-name="logo original" xmlns="http://www.w3.org/2000/svg" viewBox="0 0 3863.22 1798.51">
  <defs>
    <style>
      .cls-1 {
        letter-spacing: -.01em;
      }

      .cls-2 {
        fill: #db332e;
      }

      .cls-3 {
        fill: #6cac46;
      }

      .cls-4 {
        fill: #1e723e;
      }

      .cls-5 {
        letter-spacing: 0em;
      }

      .cls-6 {
        fill: #257b7b;
      }

      .cls-7 {
        fill: #e86f2b;
      }

      .cls-8 {
        fill: #9f276b;
      }

      .cls-9 {
        font-size: 112.84px;
      }

      .cls-9, .cls-10 {
        font-family: Roboto-Regular, Roboto;
      }

      .cls-11 {
        fill: #edaa2a;
      }

      .cls-12 {
        fill: #c9c85a;
      }

      .cls-13 {
        fill: none;
        stroke: #000;
        stroke-miterlimit: 10;
        stroke-width: 10.92px;
      }

      .cls-14 {
        fill: #e9a8bf;
      }

      .cls-10 {
        font-size: 473.21px;
      }

      .cls-15 {
        letter-spacing: 0em;
      }

      .cls-16 {
        letter-spacing: 0em;
      }

      .cls-17 {
        letter-spacing: 0em;
      }

      .cls-18 {
        letter-spacing: .02em;
      }

      .cls-19 {
        fill: #2a85bb;
      }
    </style>
  </defs>
  <path class="cls-8" d="M1517.86,703.04s-27.01,31.77-72.07,35.24c-45.06,3.47-77.41-8.04-77.41-8.04,0,0,38.13-43.95,83.19-47.42,45.06-3.47,66.29,20.22,66.29,20.22Z"/>
  <path class="cls-2" d="M1526.24,750.02s-60.19,78.81-105.26,82.28c-45.06,3.47-94.7-33.49-94.7-33.49,0,0,59.1-29,103.43-37.77,40.25-7.97,96.52-11.02,96.52-11.02Z"/>
  <path class="cls-8" d="M1516.23,654.55s-25.71,17.14-58.01,10.21c-32.3-6.93-52.49-21.94-52.49-21.94,0,0,36.11-23.55,68.41-16.62s42.1,28.35,42.1,28.35Z"/>
  <path class="cls-8" d="M1486.57,583.65s-51.04,32.38-112.31,16.81c-61.27-15.58-98.52-46.42-98.52-46.42,0,0,71.61-44.45,132.89-28.87,61.27,15.58,77.94,58.49,77.94,58.49Z"/>
  <path class="cls-8" d="M1666.02,378.45s-50.49,1.17-87.34-36.34c-36.85-37.51-49.92-75.58-49.92-75.58,0,0,70.41-.93,107.26,36.58,36.85,37.51,29.99,75.35,29.99,75.35Z"/>
  <path class="cls-14" d="M1752.04,530.23s-56-3.48-87.72-46.42c-31.72-42.94-37.06-84.26-37.06-84.26,0,0,77.93,5.59,109.65,48.53,31.72,42.94,15.13,82.15,15.13,82.15Z"/>
  <path class="cls-11" d="M2273.09,425.64s-11.36-53.33,20.55-94.24c31.92-40.9,69.2-56.69,69.2-56.69,0,0,15.12,74.42-16.8,115.32-31.92,40.9-72.95,35.61-72.95,35.61Z"/>
  <path class="cls-4" d="M2271.13,485.24s20.68-50.15,72.6-68.95c51.92-18.8,94.11-13.97,94.11-13.97,0,0-29.52,69.62-81.44,88.42-51.92,18.8-85.28-5.5-85.28-5.5Z"/>
  <path class="cls-4" d="M2256.94,629.92s36.78-45.98,103.22-55.72c66.44-9.74,115.57,2.19,115.57,2.19,0,0-52.02,63.69-118.46,73.43-66.44,9.74-100.33-19.9-100.33-19.9Z"/>
  <path class="cls-3" d="M2273.52,817.21s42.36-15.06,92.43,4.33c50.07,19.4,80.2,45.9,80.2,45.9,0,0-59.43,20.45-109.5,1.06-50.07-19.4-63.13-51.29-63.13-51.29Z"/>
  <path class="cls-19" d="M2285.18,766.09s32.03-34.49,89.89-43.18c57.86-8.68,100.65-1.12,100.65-1.12,0,0-45.3,47.81-103.16,56.49-57.86,8.68-87.39-12.19-87.39-12.19Z"/>
  <path class="cls-2" d="M1461,421.07s-36.51,11.83-67.47-7.54c-30.96-19.37-44.72-44.33-44.72-44.33,0,0,51-15.99,81.96,3.38,30.96,19.37,30.23,48.49,30.23,48.49Z"/>
  <path class="cls-11" d="M1880.06,583.94s-32.91-48.35-19.29-106.87c13.62-58.52,42.76-94.27,42.76-94.27,0,0,45.22,67.85,31.6,126.37-13.62,58.52-55.06,74.77-55.06,74.77Z"/>
  <path class="cls-11" d="M2010.7,538.78s11.6-89.28,84.42-139.23c72.82-49.95,145.34-45.99,145.34-45.99,0,0-27.36,75.64-100.18,125.59-72.82,49.95-129.58,59.63-129.58,59.63Z"/>
  <path class="cls-2" d="M1646.76,479.15s-64.63-6.14-116.66-61.93c-52.03-55.79-73.62-108.7-73.62-108.7,0,0,90.22,9.5,142.25,65.29,52.03,55.79,48.03,105.34,48.03,105.34Z"/>
  <path class="cls-2" d="M1658.87,690.31s-35.77,17.43-72.95,2.37c-37.18-15.06-57.52-38.34-57.52-38.34,0,0,50.09-23.81,87.27-8.75,37.18,15.06,43.2,44.71,43.2,44.71Z"/>
  <path class="cls-2" d="M1712.78,835.6s-24.88,41.97-67.97,63.36c-43.09,21.4-88.57,22.08-88.57,22.08,0,0,27.75-70.35,70.83-91.75,43.09-21.4,85.7,6.31,85.7,6.31Z"/>
  <path class="cls-8" d="M1519.1,482.56s-33.5,17.66-80.76,9.56c-47.26-8.1-78.74-24.53-78.74-24.53,0,0,47.14-24.25,94.4-16.15,47.26,8.1,65.11,31.12,65.11,31.12Z"/>
  <path class="cls-11" d="M1818.51,676.78s-32.6-36.92-29.12-90.27c3.48-53.34,22.33-89.31,22.33-89.31,0,0,44.97,51.98,41.49,105.32-3.48,53.34-34.7,74.25-34.7,74.25Z"/>
  <path class="cls-11" d="M1782.86,516.79s-17.02-19.28-15.2-47.13c1.82-27.85,11.66-46.62,11.66-46.62,0,0,23.48,27.14,21.66,54.98-1.82,27.85-18.12,38.76-18.12,38.76Z"/>
  <path class="cls-14" d="M1593.75,238.04s-39.56-8.47-61.72-44.74c-22.16-36.27-25.68-68.56-25.68-68.56,0,0,55.05,12.36,77.21,48.63,22.16,36.27,10.19,64.67,10.19,64.67Z"/>
  <path class="cls-2" d="M1663.79,642.12s-53.22-2.45-97.37-46.05c-44.15-43.6-79.84-81.18-79.84-81.18,0,0,90.92-.7,135.07,42.9,44.15,43.6,42.14,84.33,42.14,84.33Z"/>
  <path class="cls-7" d="M1775.13,707.9s-48.55-24.89-72.98-85.21c-24.43-60.32-43.28-111.31-43.28-111.31,0,0,84.81,37.86,109.23,98.18,24.43,60.32,7.03,98.34,7.03,98.34Z"/>
  <path class="cls-11" d="M1872.11,879.9s-89.95-92.58-237.6-85.61c0,0,82.31-78.64,165.92-33.85s71.67,119.45,71.67,119.45Z"/>
  <path class="cls-8" d="M1567.2,818.72s-118.44,23.28-148.23,102.31c0,0,108.52-32.14,148.23-102.31Z"/>
  <path class="cls-8" d="M1640.19,720.78s-22.63,45.3-46.67,57.25c-33.07,16.44-75.66,17.94-75.66,17.94,0,0,33.24-36.66,63.52-54.01,16.88-9.67,58.81-21.19,58.81-21.19Z"/>
  <path class="cls-2" d="M1889.01,837.41s-35.12-33.57-31.93-103.84c3.19-70.27,80.6-181.18,80.6-181.18,0,0-35.95,66.75-40.4,194.26-.91,25.99-8.27,90.76-8.27,90.76Z"/>
  <path class="cls-12" d="M1940.28,707.9s-12.28-27.97.44-67.71c12.72-39.75,60.04-64.37,60.04-64.37,0,0-5.32,37.99-18.07,64.79-9.75,20.5-42.41,67.3-42.41,67.3Z"/>
  <path class="cls-7" d="M1839.46,457.47s-33.15-52.78-60.34-87.35c-17.09-21.73-26.52-48.5-26.35-76.14l-5.12-49.62s70.25,72,86.18,110.31c11.7,28.14,5.64,102.81,5.64,102.81Z"/>
  <path class="cls-2" d="M1960.01,419.45s50.37-43.55,88.97-70.37c24.26-16.86,42.26-41.25,50.73-69.55l20.76-49.09s-94.28,51.58-122.54,85.74c-20.76,25.09-37.92,103.27-37.92,103.27Z"/>
  <path class="cls-4" d="M1972.87,701.2s116.26-56.53,147.6-91.55c41.49-46.37,95.36-112.43,95.36-112.43,0,0-123.59,14.17-169.01,81.3-18.25,26.97-73.94,122.68-73.94,122.68Z"/>
  <path class="cls-14" d="M1751.54,427.62c-51.28-13.56-78.64-93.58-85.02-125.48,0,0,44.11,4.15,66.82,39.36s18.2,86.12,18.2,86.12Z"/>
  <circle class="cls-8" cx="1357.5" cy="701.2" r="10.88"/>
  <circle class="cls-8" cx="1679.23" cy="712.07" r="10.88"/>
  <circle class="cls-2" cx="1960.01" cy="563.27" r="10.88"/>
  <circle class="cls-3" cx="2428.64" cy="658.83" r="10.88"/>
  <circle class="cls-2" cx="2060.61" cy="382.8" r="10.88"/>
  <circle class="cls-8" cx="1564.31" cy="730.69" r="10.88"/>
  <circle class="cls-12" cx="1357.5" cy="629.73" r="10.88"/>
  <circle class="cls-2" cx="1528.4" cy="609.64" r="10.88"/>
  <circle class="cls-11" cx="1658.87" cy="85.97" r="10.88"/>
  <path class="cls-4" d="M1930.57,967.49c-.39-3.13-.93-6.25-1.49-9.36-.59-3.32-1.35-10.13-1.15-22.84.32-20.35,31.41-88.65,62.76-122.02,16.26-17.3,69.92-44.95,69.92-44.95,0,0-10.73-6.23-63.67-4.5-52.95,1.73-80.14,46.11-83.74,76.53-3.1,26.19-5.44,83.73-5.44,83.69-16.89-28.87-20.82-66.8-20.82-66.8,0,0-7.1,57.22,6.88,89.76,13.98,32.51,38.02,30.56,38.02,30.56l-1.27-10.09Z"/>
  <path class="cls-19" d="M1910.09,363s-62.25-57.32-62.25-138.67,49.74-132.86,49.74-132.86c0,0,62.34,75.92,62.34,119.3,0,80.44-49.82,152.22-49.82,152.22Z"/>
  <path class="cls-19" d="M1993.11,219.14s-.88-49.43-27.35-104.1c-24.56-50.74,36.23-104.1,36.23-104.1,0,0,43.2,52.62,43.2,82.69,0,55.75-52.09,125.52-52.09,125.52Z"/>
  <path class="cls-2" d="M1727.58,302.14c.7-4.45,4.31-59-7.58-79.28-11.89-20.28-81.94-86.72-81.94-86.72-11.72.1-22.73,58.05,20.8,104.9,43.54,46.86,68.71,61.09,68.71,61.09Z"/>
  <path class="cls-2" d="M1791.83,233.6c.7-4.45,4.31-59-7.58-79.28-11.89-20.28-81.94-86.72-81.94-86.72-11.72.1-22.73,58.05,20.8,104.9,43.54,46.86,68.71,61.09,68.71,61.09Z"/>
  <path class="cls-8" d="M1840.28,173.72c.5-3.17,3.07-42.02-5.4-56.47-8.47-14.45-58.36-61.77-58.36-61.77-8.35.07-16.19,41.34,14.82,74.72,31.01,33.37,48.94,43.51,48.94,43.51Z"/>
  <path class="cls-11" d="M2181.4,570.37s37.4-37.68,70.4-48.58c48.69-16.07,133.08-20.51,151.77-24.59,0,0-33.69,30.96-76.6,51.06-42.91,20.1-107.5,26.49-145.57,22.11Z"/>
  <path class="cls-11" d="M2120.47,324.95s79.07-32.6,95.36-80.59c16.29-48,4.42-108.21,4.42-108.21,0,0-51.73,26.2-71.74,66.93-19.14,38.96-28.04,121.88-28.04,121.88Z"/>
  <path class="cls-11" d="M1744.97,710.7s-22.61,5.07-34.28,0c-13.76-5.98-13.58-20.38-13.58-20.38,0,0,28.68-7.09,47.86,20.38Z"/>
  <path class="cls-19" d="M2068.8,674.35s15.93-16.83,28.44-19.13c14.75-2.71,22.65,9.33,22.65,9.33,0,0-19.85,21.89-51.09,9.8Z"/>
  <path class="cls-4" d="M2168.41,648.92s19.88-11.92,32.55-10.76c14.94,1.36,19.29,15.09,19.29,15.09,0,0-25.01,15.74-51.84-4.33Z"/>
  <path class="cls-19" d="M2227.56,770.42s22.92-3.42,34.19,2.48c13.29,6.96,12.07,21.31,12.07,21.31,0,0-29.12,4.99-46.26-23.8Z"/>
  <path class="cls-4" d="M1985.85,847.12s4.9-16.81,21.17-25.94c12.94-7.26,36.43-8.58,36.43-8.58,0,0-25.58,42.01-57.6,34.52Z"/>
  <path class="cls-4" d="M2078.77,746.5s16.51-5.84,33.42,2.04c13.45,6.27,28.24,24.56,28.24,24.56,0,0-49.04,3.76-61.66-26.6Z"/>
  <path class="cls-2" d="M1640.19,541.95s-22.4-5.96-30.39-15.85c-9.43-11.67-2.62-24.35-2.62-24.35,0,0,28.71,6.98,33.01,40.21Z"/>
  <path class="cls-8" d="M1675.27,732.61s-9.26,21.24-20.24,27.66c-12.95,7.57-24.47-1.08-24.47-1.08,0,0,11.22-27.33,44.71-26.58Z"/>
  <path class="cls-14" d="M1516.23,293.87s.2-60.82-47.04-60.27c-47.24.55-55.26,10.75-55.26,10.75,0,0,8.51,29.02,102.31,49.52Z"/>
  <path class="cls-4" d="M1957.13,752.34s36.8-46.21,83.11-51.12c46.31-4.91,54.11,6.68,54.11,6.68,0,0,44.73-37.91,99.98-35.67,55.25,2.24,89.98,21.29,89.98,21.29,0,0-15.69,43.7-77.31,49.3-61.62,5.6-118.21-15.13-118.21-15.13,0,0-52.66,24.65-131.65,24.65Z"/>
  <path class="cls-11" d="M1841.03,318.16s-28.13-27.45-28.87-63.79c-.74-36.35,0-48.96,0-48.96,0,0,36.23,43.02,28.87,112.75Z"/>
  <path class="cls-3" d="M1867.7,418.53s-14.15-20.26-11.95-44.92c1.98-22.21,6.38-35.24,6.38-35.24,0,0,27.08,42.48,5.57,80.16Z"/>
  <path class="cls-3" d="M1947.85,360.06s-6.12-35.44,11.96-66.21c16.29-27.71,30.09-41.91,30.09-41.91,0,0,9.42,72.67-42.05,108.12Z"/>
  <path class="cls-3" d="M2022.59,246.1s13.75-39.41,52.02-64.1c34.47-22.24,58.28-31.4,58.28-31.4,0,0-31.71,79.54-110.3,95.5Z"/>
  <path class="cls-11" d="M2117.85,358.39s29.8-39.06,82.76-53.7c47.7-13.18,78.47-15.43,78.47-15.43,0,0-64.72,77.52-161.23,69.13Z"/>
  <path class="cls-19" d="M2063.44,154.15s-10.03-34.5,7.71-58.75c15.98-21.84,36.57-28.45,36.57-28.45,0,0,9.98,63.32-44.28,87.2Z"/>
  <path class="cls-2" d="M2236.62,270.04s-4.46-35.65,16.89-56.79c19.23-19.04,40.61-22.32,40.61-22.32,0,0-.14,64.11-57.5,79.11Z"/>
  <path class="cls-14" d="M2137.44,141.38s-1.34-35.91,21.77-55.11c20.82-17.3,42.39-18.7,42.39-18.7,0,0-5.72,63.85-64.16,73.81Z"/>
  <path class="cls-14" d="M2381.25,375.28s-1.34-35.91,21.77-55.11c20.82-17.3,42.39-18.7,42.39-18.7,0,0-5.72,63.85-64.16,73.81Z"/>
  <path class="cls-11" d="M1958.07,512.83s1.91-35.92,26.37-61.9c22.03-23.4,38.65-34.18,38.65-34.18,0,0-6.95,72.95-65.02,96.08Z"/>
  <path class="cls-11" d="M2145.45,622.92s27.91-28.39,66.95-31.88c35.17-3.14,56.65.19,56.65.19,0,0-59.2,55.39-123.59,31.69Z"/>
  <path class="cls-19" d="M2273.85,669.19s38.58-9.81,73.78,7.45c31.7,15.55,48.34,29.54,48.34,29.54,0,0-79.34,16.67-122.11-36.99Z"/>
  <path class="cls-3" d="M2051.06,790.15s49.28-13.17,85.49,10.7c32.62,21.5,44.85,46.3,44.85,46.3-3.77,3.84-99.64,15.63-130.34-57Z"/>
  <path class="cls-6" d="M2200.73,874.19s49.28-13.17,85.49,10.7c32.62,21.5,44.85,46.3,44.85,46.3-3.77,3.84-99.64,15.63-130.34-57Z"/>
  <path class="cls-3" d="M2055.21,854.62s58.51-1.55,96.92,37.77c34.6,35.42,45.27,68.88,45.27,68.88-4.86,3.53-116.8-10.13-142.19-106.64Z"/>
  <path class="cls-3" d="M2181.4,491.49s4.8-26.08,26.21-54.62c16.81-22.41,30.81-37.54,39.19-47.55,0,0-7.34,79.05-65.41,102.17Z"/>
  <path class="cls-3" d="M2156.54,779.39s35.85,2.94,61.11,28.14c22.76,22.7,33.05,39.62,33.05,39.62,0,0-72.72-9.05-94.16-67.76Z"/>
  <path class="cls-14" d="M1854.7,124.75s-12.34-20.27-13.67-44.29C1839.69,56.44,1873.21.58,1889.53,0c4.2-.15-4.8,108.39-34.83,124.75Z"/>
  <path class="cls-14" d="M1928.56,104.48s-18.01-16.08-18.01-33.85,24.62-59.7,24.62-59.7c0,0,25.82,55.72-6.6,93.55Z"/>
  <text class="cls-10" transform="translate(172.14 1498.26)"><tspan x="0" y="0">A</tspan></text>
  <text class="cls-9" transform="translate(161.61 1767.93)"><tspan x="0" y="0">Alliance for Suppo</tspan><tspan class="cls-18" x="915.96" y="0">r</tspan><tspan x="956.9" y="0">t and P</tspan><tspan class="cls-17" x="1308.1" y="0">r</tspan><tspan class="cls-5" x="1345.24" y="0">ev</tspan><tspan x="1458.24" y="0">ention of Immune-Related ad</tspan><tspan class="cls-15" x="2905.69" y="0">v</tspan><tspan x="2959.63" y="0">erse </tspan><tspan class="cls-1" x="3203.5" y="0">E</tspan><tspan class="cls-16" x="3266.2" y="0">v</tspan><tspan x="3320.14" y="0">ents</tspan></text>
  <text class="cls-10" transform="translate(828.17 1498.26)"><tspan x="0" y="0">S</tspan></text>
  <text class="cls-10" transform="translate(1461.32 1498.26)"><tspan x="0" y="0">P</tspan></text>
  <text class="cls-10" transform="translate(2188.71 1498.26)"><tspan x="0" y="0">I</tspan></text>
  <text class="cls-10" transform="translate(2749 1498.26)"><tspan x="0" y="0">R</tspan></text>
  <text class="cls-10" transform="translate(3402.26 1498.26)"><tspan x="0" y="0">E</tspan></text>
  <rect class="cls-13" x="5.46" y="1060.51" width="642.05" height="524.03"/>
  <rect class="cls-13" x="647.51" y="1060.51" width="642.05" height="524.03"/>
  <rect class="cls-13" x="1289.56" y="1060.51" width="642.05" height="524.03"/>
  <rect class="cls-13" x="1931.61" y="1060.51" width="642.05" height="524.03"/>
  <rect class="cls-13" x="2573.66" y="1060.51" width="642.05" height="524.03"/>
  <rect class="cls-13" x="3215.71" y="1060.51" width="642.05" height="524.03"/>
</svg>