<?xml version="1.0" encoding="UTF-8" standalone="no"?>
<!-- Created with Inkscape (http://www.inkscape.org/) -->

<svg
   width="85.273651mm"
   height="16.887146mm"
   viewBox="0 0 85.273652 16.887146"
   version="1.1"
   id="svg5"
   xml:space="preserve"
   xmlns="http://www.w3.org/2000/svg"
   xmlns:svg="http://www.w3.org/2000/svg"><defs
     id="defs2"><clipPath
       clipPathUnits="userSpaceOnUse"
       id="clipPath1126"><path
         d="m 908.532,539.61 h 1.24 v -4.034 h -1.24 z"
         id="path1124" /></clipPath><clipPath
       clipPathUnits="userSpaceOnUse"
       id="clipPath1142"><path
         d="m 909.695,539.748 h 0.066 v -0.056 h -0.066 z"
         id="path1140" /></clipPath><clipPath
       clipPathUnits="userSpaceOnUse"
       id="clipPath1158"><path
         d="m 914.359,539.732 h 0.148 v -0.111 h -0.148 z"
         id="path1156" /></clipPath><clipPath
       clipPathUnits="userSpaceOnUse"
       id="clipPath1174"><path
         d="m 914.339,539.621 h 1.245 v -3.247 h -1.245 z"
         id="path1172" /></clipPath><clipPath
       clipPathUnits="userSpaceOnUse"
       id="clipPath4639"><g
         id="g4643"
         transform="matrix(2.8346458,0,0,-2.8346458,152.58606,760.53406)"><path
           d="M -303.57418,-241.30798 H 401.98136 V 464.24756 H -303.57418 Z"
           id="path4641"
           style="stroke-width:0.352778" /></g></clipPath><clipPath
       clipPathUnits="userSpaceOnUse"
       id="clipPath4645"><g
         id="g4649"
         transform="matrix(2.8346458,0,0,-2.8346458,42.301156,786.81137)"><path
           d="M -303.57418,-241.30798 H 401.98136 V 464.24756 H -303.57418 Z"
           id="path4647"
           style="stroke-width:0.352778" /></g></clipPath><clipPath
       clipPathUnits="userSpaceOnUse"
       id="clipPath4651"><g
         id="g4655"
         transform="matrix(2.8346458,0,0,-2.8346458,60.145455,758.92616)"><path
           d="M -303.57418,-241.30798 H 401.98136 V 464.24756 H -303.57418 Z"
           id="path4653"
           style="stroke-width:0.352778" /></g></clipPath><clipPath
       clipPathUnits="userSpaceOnUse"
       id="clipPath4657"><g
         id="g4661"
         transform="matrix(2.8346458,0,0,-2.8346458,104.11145,772.41786)"><path
           d="M -303.57418,-241.30798 H 401.98136 V 464.24756 H -303.57418 Z"
           id="path4659"
           style="stroke-width:0.352778" /></g></clipPath><clipPath
       clipPathUnits="userSpaceOnUse"
       id="clipPath4663"><g
         id="g4667"
         transform="matrix(2.8346458,0,0,-2.8346458,124.58376,786.41925)"><path
           d="M -303.57418,-241.30798 H 401.98136 V 464.24756 H -303.57418 Z"
           id="path4665"
           style="stroke-width:0.352778" /></g></clipPath><clipPath
       clipPathUnits="userSpaceOnUse"
       id="clipPath4669"><g
         id="g4673"
         transform="matrix(2.8346458,0,0,-2.8346458,141.44836,784.41907)"><path
           d="M -303.57418,-241.30798 H 401.98136 V 464.24756 H -303.57418 Z"
           id="path4671"
           style="stroke-width:0.352778" /></g></clipPath><clipPath
       clipPathUnits="userSpaceOnUse"
       id="clipPath4675"><g
         id="g4679"
         transform="matrix(2.8346458,0,0,-2.8346458,860.52525,1315.9774)"><path
           d="M -303.57418,-241.30798 H 401.98136 V 464.24756 H -303.57418 Z"
           id="path4677"
           style="stroke-width:0.352778" /></g></clipPath><clipPath
       clipPathUnits="userSpaceOnUse"
       id="clipPath4681"><g
         id="g4685"
         transform="matrix(2.8346458,0,0,-2.8346458,860.52525,1315.9774)"><path
           d="M -303.57418,-241.30798 H 401.98136 V 464.24756 H -303.57418 Z"
           id="path4683"
           style="stroke-width:0.352778" /></g></clipPath><clipPath
       clipPathUnits="userSpaceOnUse"
       id="clipPath4687"><g
         id="g4691"
         transform="matrix(2.8346458,0,0,-2.8346458,860.52525,1315.9774)"><path
           d="M -303.57418,-241.30798 H 401.98136 V 464.24756 H -303.57418 Z"
           id="path4689"
           style="stroke-width:0.352778" /></g></clipPath><clipPath
       clipPathUnits="userSpaceOnUse"
       id="clipPath4693"><g
         id="g4697"
         transform="matrix(2.8346458,0,0,-2.8346458,860.52525,1315.9774)"><path
           d="M -303.57418,-241.30798 H 401.98136 V 464.24756 H -303.57418 Z"
           id="path4695"
           style="stroke-width:0.352778" /></g></clipPath><clipPath
       clipPathUnits="userSpaceOnUse"
       id="clipPath4699"><g
         id="g4703"
         transform="matrix(2.8346458,0,0,-2.8346458,-51.527645,781.82355)"><path
           d="M -303.57418,-241.30798 H 401.98136 V 464.24756 H -303.57418 Z"
           id="path4701"
           style="stroke-width:0.352778" /></g></clipPath><clipPath
       clipPathUnits="userSpaceOnUse"
       id="clipPath4705"><g
         id="g4709"
         transform="matrix(2.8346458,0,0,-2.8346458,-10.055945,783.72846)"><path
           d="M -303.57418,-241.30798 H 401.98136 V 464.24756 H -303.57418 Z"
           id="path4707"
           style="stroke-width:0.352778" /></g></clipPath><clipPath
       clipPathUnits="userSpaceOnUse"
       id="clipPath4711"><g
         id="g4715"
         transform="matrix(2.8346458,0,0,-2.8346458,-67.369544,775.96097)"><path
           d="M -303.57418,-241.30798 H 401.98136 V 464.24756 H -303.57418 Z"
           id="path4713"
           style="stroke-width:0.352778" /></g></clipPath><clipPath
       clipPathUnits="userSpaceOnUse"
       id="clipPath4717"><g
         id="g4721"
         transform="matrix(2.8346458,0,0,-2.8346458,-40.674546,779.92967)"><path
           d="M -303.57418,-241.30798 H 401.98136 V 464.24756 H -303.57418 Z"
           id="path4719"
           style="stroke-width:0.352778" /></g></clipPath><clipPath
       clipPathUnits="userSpaceOnUse"
       id="clipPath4723"><g
         id="g4727"
         transform="matrix(2.8346458,0,0,-2.8346458,-28.442347,783.08078)"><path
           d="M -303.57418,-241.30798 H 401.98136 V 464.24756 H -303.57418 Z"
           id="path4725"
           style="stroke-width:0.352778" /></g></clipPath><clipPath
       clipPathUnits="userSpaceOnUse"
       id="clipPath4729"><g
         id="g4733"
         transform="matrix(2.8346458,0,0,-2.8346458,-19.509545,779.92967)"><path
           d="M -303.57418,-241.30798 H 401.98136 V 464.24756 H -303.57418 Z"
           id="path4731"
           style="stroke-width:0.352778" /></g></clipPath><clipPath
       clipPathUnits="userSpaceOnUse"
       id="clipPath4735"><g
         id="g4739"
         transform="matrix(2.8346458,0,0,-2.8346458,-5.1069455,775.84225)"><path
           d="M -303.57418,-241.30798 H 401.98136 V 464.24756 H -303.57418 Z"
           id="path4737"
           style="stroke-width:0.352778" /></g></clipPath><clipPath
       clipPathUnits="userSpaceOnUse"
       id="clipPath4741"><g
         id="g4745"
         transform="matrix(2.8346458,0,0,-2.8346458,7.2598547,775.84225)"><path
           d="M -303.57418,-241.30798 H 401.98136 V 464.24756 H -303.57418 Z"
           id="path4743"
           style="stroke-width:0.352778" /></g></clipPath><clipPath
       clipPathUnits="userSpaceOnUse"
       id="clipPath4747"><g
         id="g4751"
         transform="matrix(2.8346458,0,0,-2.8346458,18.615355,779.92967)"><path
           d="M -303.57418,-241.30798 H 401.98136 V 464.24756 H -303.57418 Z"
           id="path4749"
           style="stroke-width:0.352778" /></g></clipPath><clipPath
       clipPathUnits="userSpaceOnUse"
       id="clipPath4753"><g
         id="g4757"
         transform="matrix(2.8346458,0,0,-2.8346458,164.62075,754.82015)"><path
           d="M -303.57418,-241.30798 H 401.98136 V 464.24756 H -303.57418 Z"
           id="path4755"
           style="stroke-width:0.352778" /></g></clipPath><clipPath
       clipPathUnits="userSpaceOnUse"
       id="clipPath4759"><g
         id="g4763"
         transform="matrix(2.8346458,0,0,-2.8346458,164.28525,759.84207)"><path
           d="M -303.57418,-241.30798 H 401.98136 V 464.24756 H -303.57418 Z"
           id="path4761"
           style="stroke-width:0.352778" /></g></clipPath><clipPath
       clipPathUnits="userSpaceOnUse"
       id="clipPath4765"><g
         id="g4769"
         transform="matrix(2.8346458,0,0,-2.8346458,162.93295,759.93847)"><path
           d="M -303.57418,-241.30798 H 401.98136 V 464.24756 H -303.57418 Z"
           id="path4767"
           style="stroke-width:0.352778" /></g></clipPath></defs><g
     id="layer1"
     transform="translate(61.245073,-262.09358)"><g
       id="g5703"><g
         id="g1072"
         transform="matrix(0.35277777,0,0,-0.35277777,-57.479124,268.0894)"
         clip-path="url(#clipPath4765)"><path
           d="m 0,0 c 0,0 -3.465,6.975 3.863,10.462 7.328,3.488 7.548,2.693 8.078,6.534 0,0 3.62,-16.378 -11.257,-16.996 0,0 3.355,5.959 6.225,7.902 C 6.909,7.902 3.112,6.975 0,0"
           style="fill:#437844;fill-opacity:1;fill-rule:nonzero;stroke:none"
           id="path1074" /></g><g
         id="g1076"
         transform="matrix(0.35277777,0,0,-0.35277777,-57.956185,268.05539)"
         clip-path="url(#clipPath4759)"><path
           d="m 0,0 c 0,0 1.047,3.542 -2.662,4.571 -3.709,1.029 -3.747,0.64 -4.309,2.391 0,0 -0.349,-7.948 6.651,-7.018 0,0 -2.055,2.509 -3.555,3.182 0,0 1.85,-0.123 3.875,-3.126"
           style="fill:#437844;fill-opacity:1;fill-rule:nonzero;stroke:none"
           id="path1078" /></g><g
         id="g1080"
         transform="matrix(0.35277777,0,0,-0.35277777,-58.074542,266.28377)"
         clip-path="url(#clipPath4753)"><path
           d="m 0,0 c 0,0 2.115,1.953 0.043,4.122 -2.072,2.169 -2.252,1.923 -1.93,3.319 0,0 -3.406,-5.179 1.651,-7.351 0,0 -0.375,2.5 -1.11,3.548 0,0 1.189,-0.82 1.346,-3.638"
           style="fill:#437844;fill-opacity:1;fill-rule:nonzero;stroke:none"
           id="path1082" /></g><g
         id="g1084"
         transform="matrix(0.35277777,0,0,-0.35277777,-6.5670829,275.14185)"
         clip-path="url(#clipPath4747)"><path
           d="M 0,0 C 0,0.545 -0.109,1.018 -0.327,1.42 -0.545,1.821 -0.84,2.135 -1.212,2.363 -1.583,2.591 -1.997,2.705 -2.452,2.705 -2.909,2.705 -3.325,2.591 -3.701,2.363 -4.078,2.135 -4.375,1.821 -4.593,1.42 -4.811,1.018 -4.92,0.545 -4.92,0 c 0,-0.525 0.109,-0.991 0.327,-1.397 0.218,-0.407 0.515,-0.724 0.892,-0.951 0.376,-0.229 0.792,-0.342 1.249,-0.342 0.455,0 0.869,0.113 1.24,0.342 0.372,0.227 0.667,0.544 0.885,0.951 C -0.109,-0.991 0,-0.525 0,0 m 1.486,0 c 0,-0.793 -0.173,-1.494 -0.52,-2.103 -0.347,-0.61 -0.817,-1.088 -1.412,-1.434 -0.594,-0.347 -1.263,-0.521 -2.006,-0.521 -0.743,0 -1.413,0.174 -2.007,0.521 -0.595,0.346 -1.068,0.824 -1.42,1.434 -0.351,0.609 -0.527,1.31 -0.527,2.103 0,0.803 0.176,1.509 0.527,2.118 0.352,0.609 0.825,1.09 1.42,1.442 0.594,0.351 1.264,0.527 2.007,0.527 0.743,0 1.412,-0.176 2.006,-0.527 C 0.149,3.208 0.619,2.727 0.966,2.118 1.313,1.509 1.486,0.803 1.486,0"
           style="fill:#142514;fill-opacity:1;fill-rule:nonzero;stroke:none"
           id="path1086" /></g><g
         id="g1088"
         transform="matrix(0.35277777,0,0,-0.35277777,-2.561115,273.6999)"
         clip-path="url(#clipPath4741)"><path
           d="m 0,0 c 0.703,0 1.248,-0.146 1.635,-0.438 0.386,-0.293 0.656,-0.684 0.81,-1.174 0.153,-0.491 0.23,-1.039 0.23,-1.643 v -3.983 c 0,-0.219 -0.072,-0.399 -0.215,-0.543 -0.144,-0.144 -0.32,-0.215 -0.528,-0.215 -0.218,0 -0.399,0.071 -0.543,0.215 -0.144,0.144 -0.215,0.324 -0.215,0.543 v 3.968 c 0,0.357 -0.05,0.676 -0.148,0.959 -0.1,0.282 -0.268,0.508 -0.506,0.676 -0.238,0.169 -0.575,0.253 -1.011,0.253 -0.406,0 -0.763,-0.084 -1.07,-0.253 -0.307,-0.168 -0.548,-0.394 -0.72,-0.676 -0.174,-0.283 -0.261,-0.602 -0.261,-0.959 v -3.968 c 0,-0.219 -0.072,-0.399 -0.216,-0.543 -0.143,-0.144 -0.319,-0.215 -0.527,-0.215 -0.218,0 -0.399,0.071 -0.543,0.215 -0.143,0.144 -0.215,0.324 -0.215,0.543 v 6.302 c 0,0.218 0.072,0.399 0.215,0.542 0.144,0.144 0.325,0.216 0.543,0.216 0.208,0 0.384,-0.072 0.527,-0.216 0.144,-0.143 0.216,-0.324 0.216,-0.542 V -1.769 L -2.81,-1.917 c 0.07,0.218 0.191,0.438 0.365,0.661 0.173,0.223 0.383,0.431 0.631,0.625 0.248,0.193 0.526,0.346 0.833,0.46 C -0.674,-0.057 -0.347,0 0,0"
           style="fill:#142514;fill-opacity:1;fill-rule:nonzero;stroke:none"
           id="path1090" /></g><g
         id="g1092"
         transform="matrix(0.35277777,0,0,-0.35277777,1.8016172,273.6999)"
         clip-path="url(#clipPath4735)"><path
           d="M 0,0 C 0.535,0 1.01,-0.057 1.427,-0.171 1.843,-0.285 2.167,-0.443 2.4,-0.646 2.633,-0.85 2.749,-1.085 2.749,-1.352 2.749,-1.521 2.7,-1.677 2.601,-1.821 2.501,-1.964 2.353,-2.036 2.155,-2.036 c -0.149,0 -0.27,0.022 -0.364,0.067 -0.095,0.044 -0.179,0.104 -0.253,0.178 -0.074,0.074 -0.171,0.141 -0.29,0.201 -0.109,0.069 -0.272,0.121 -0.49,0.156 -0.218,0.034 -0.407,0.052 -0.565,0.052 -0.525,0 -0.979,-0.119 -1.36,-0.357 -0.382,-0.238 -0.679,-0.557 -0.892,-0.959 -0.213,-0.401 -0.319,-0.859 -0.319,-1.374 0,-0.516 0.106,-0.977 0.319,-1.383 0.213,-0.406 0.505,-0.728 0.877,-0.966 0.371,-0.238 0.805,-0.357 1.301,-0.357 0.287,0 0.527,0.023 0.72,0.067 0.194,0.045 0.354,0.102 0.484,0.171 0.158,0.089 0.289,0.181 0.394,0.275 0.104,0.094 0.25,0.141 0.438,0.141 0.218,0 0.384,-0.066 0.498,-0.2 0.114,-0.134 0.171,-0.3 0.171,-0.498 C 2.824,-7.04 2.693,-7.251 2.43,-7.454 2.167,-7.657 1.818,-7.823 1.382,-7.952 0.946,-8.08 0.461,-8.145 -0.074,-8.145 c -0.764,0 -1.43,0.178 -2,0.535 -0.57,0.357 -1.01,0.842 -1.323,1.457 -0.312,0.614 -0.468,1.308 -0.468,2.081 0,0.782 0.164,1.478 0.491,2.088 0.327,0.609 0.78,1.092 1.359,1.449 C -1.434,-0.178 -0.763,0 0,0"
           style="fill:#142514;fill-opacity:1;fill-rule:nonzero;stroke:none"
           id="path1094" /></g><g
         id="g1096"
         transform="matrix(0.35277777,0,0,-0.35277777,6.8825343,275.14185)"
         clip-path="url(#clipPath4729)"><path
           d="M 0,0 C 0,0.545 -0.109,1.018 -0.327,1.42 -0.545,1.821 -0.84,2.135 -1.212,2.363 -1.583,2.591 -1.997,2.705 -2.452,2.705 -2.909,2.705 -3.325,2.591 -3.701,2.363 -4.078,2.135 -4.375,1.821 -4.593,1.42 -4.811,1.018 -4.92,0.545 -4.92,0 c 0,-0.525 0.109,-0.991 0.327,-1.397 0.218,-0.407 0.515,-0.724 0.892,-0.951 0.376,-0.229 0.792,-0.342 1.249,-0.342 0.455,0 0.869,0.113 1.24,0.342 0.372,0.227 0.667,0.544 0.885,0.951 C -0.109,-0.991 0,-0.525 0,0 m 1.486,0 c 0,-0.793 -0.173,-1.494 -0.52,-2.103 -0.347,-0.61 -0.817,-1.088 -1.412,-1.434 -0.594,-0.347 -1.263,-0.521 -2.006,-0.521 -0.743,0 -1.413,0.174 -2.007,0.521 -0.595,0.346 -1.068,0.824 -1.42,1.434 -0.352,0.609 -0.527,1.31 -0.527,2.103 0,0.803 0.175,1.509 0.527,2.118 0.352,0.609 0.825,1.09 1.42,1.442 0.594,0.351 1.264,0.527 2.007,0.527 0.743,0 1.412,-0.176 2.006,-0.527 C 0.149,3.208 0.619,2.727 0.966,2.118 1.313,1.509 1.486,0.803 1.486,0"
           style="fill:#142514;fill-opacity:1;fill-rule:nonzero;stroke:none"
           id="path1098" /></g><g
         id="g1100"
         transform="matrix(0.35277777,0,0,-0.35277777,10.033828,276.25349)"
         clip-path="url(#clipPath4723)"><path
           d="m 0,0 c 0,-0.218 -0.072,-0.399 -0.216,-0.542 -0.143,-0.144 -0.319,-0.216 -0.527,-0.216 -0.209,0 -0.384,0.072 -0.528,0.216 -0.144,0.143 -0.216,0.324 -0.216,0.542 v 9.483 c 0,0.218 0.075,0.399 0.223,0.542 0.149,0.144 0.327,0.216 0.536,0.216 0.217,0 0.393,-0.072 0.527,-0.216 C -0.067,9.882 0,9.701 0,9.483 Z"
           style="fill:#142514;fill-opacity:1;fill-rule:nonzero;stroke:none"
           id="path1102" /></g><g
         id="g1104"
         transform="matrix(0.35277777,0,0,-0.35277777,14.349076,275.14185)"
         clip-path="url(#clipPath4717)"><path
           d="M 0,0 C 0,0.545 -0.109,1.018 -0.327,1.42 -0.545,1.821 -0.84,2.135 -1.212,2.363 -1.583,2.591 -1.997,2.705 -2.452,2.705 -2.909,2.705 -3.324,2.591 -3.701,2.363 -4.078,2.135 -4.375,1.821 -4.593,1.42 -4.811,1.018 -4.92,0.545 -4.92,0 c 0,-0.525 0.109,-0.991 0.327,-1.397 0.218,-0.407 0.515,-0.724 0.892,-0.951 0.377,-0.229 0.792,-0.342 1.249,-0.342 0.455,0 0.869,0.113 1.24,0.342 0.372,0.227 0.667,0.544 0.885,0.951 C -0.109,-0.991 0,-0.525 0,0 m 1.486,0 c 0,-0.793 -0.173,-1.494 -0.52,-2.103 -0.347,-0.61 -0.817,-1.088 -1.412,-1.434 -0.594,-0.347 -1.263,-0.521 -2.006,-0.521 -0.743,0 -1.413,0.174 -2.007,0.521 -0.595,0.346 -1.068,0.824 -1.42,1.434 -0.351,0.609 -0.527,1.31 -0.527,2.103 0,0.803 0.176,1.509 0.527,2.118 0.352,0.609 0.825,1.09 1.42,1.442 0.594,0.351 1.264,0.527 2.007,0.527 0.743,0 1.412,-0.176 2.006,-0.527 C 0.149,3.208 0.619,2.727 0.966,2.118 1.313,1.509 1.486,0.803 1.486,0"
           style="fill:#142514;fill-opacity:1;fill-rule:nonzero;stroke:none"
           id="path1106" /></g><g
         id="g1108"
         transform="matrix(0.35277777,0,0,-0.35277777,23.766478,273.74178)"
         clip-path="url(#clipPath4711)"><path
           d="M 0,0 C 0.218,0 0.396,-0.072 0.535,-0.216 0.674,-0.359 0.743,-0.54 0.743,-0.758 v -6.391 c 0,-0.872 -0.166,-1.581 -0.498,-2.126 -0.332,-0.545 -0.778,-0.944 -1.337,-1.196 -0.561,-0.253 -1.192,-0.379 -1.895,-0.379 -0.357,0 -0.714,0.032 -1.071,0.096 -0.357,0.065 -0.649,0.151 -0.877,0.26 -0.238,0.11 -0.406,0.246 -0.505,0.409 -0.099,0.164 -0.114,0.339 -0.044,0.528 0.068,0.237 0.187,0.399 0.356,0.483 0.168,0.084 0.342,0.091 0.52,0.022 0.169,-0.069 0.391,-0.158 0.669,-0.268 0.277,-0.108 0.595,-0.163 0.952,-0.163 0.485,0 0.894,0.079 1.225,0.238 0.333,0.158 0.588,0.406 0.766,0.743 0.178,0.337 0.268,0.773 0.268,1.308 v 1.026 L -0.49,-6.54 c -0.159,-0.317 -0.37,-0.585 -0.632,-0.803 -0.263,-0.218 -0.567,-0.386 -0.914,-0.505 -0.347,-0.119 -0.734,-0.178 -1.16,-0.178 -0.545,0 -1.013,0.121 -1.404,0.364 -0.392,0.243 -0.694,0.579 -0.907,1.01 -0.213,0.432 -0.32,0.924 -0.32,1.479 v 4.415 c 0,0.218 0.072,0.399 0.216,0.542 0.143,0.144 0.325,0.216 0.542,0.216 0.208,0 0.384,-0.072 0.528,-0.216 0.144,-0.143 0.215,-0.324 0.215,-0.542 v -4.013 c 0,-0.654 0.144,-1.133 0.432,-1.435 0.287,-0.302 0.713,-0.453 1.278,-0.453 0.377,0 0.703,0.079 0.981,0.238 0.277,0.158 0.495,0.379 0.654,0.661 0.158,0.283 0.238,0.612 0.238,0.989 v 4.013 c 0,0.218 0.069,0.399 0.208,0.542 C -0.397,-0.072 -0.218,0 0,0"
           style="fill:#142514;fill-opacity:1;fill-rule:nonzero;stroke:none"
           id="path1110" /></g><g
         id="g1112"
         transform="matrix(0.35277777,0,0,-0.35277777,3.5475143,276.48198)"
         clip-path="url(#clipPath4705)"><path
           d="m 0,0 c 0,0 0,-0.001 0.001,-0.001 0,0 0,0 0.001,0 z"
           style="fill:#142514;fill-opacity:1;fill-rule:nonzero;stroke:none"
           id="path1114" /></g><g
         id="g1116"
         transform="matrix(0.35277777,0,0,-0.35277777,18.177808,275.80997)"
         clip-path="url(#clipPath4699)"><path
           d="M 0,0 -0.163,0.274 C -1.031,1.727 -1.804,3.267 -2.256,4.72 -2.266,4.75 -2.271,4.781 -2.281,4.811 -2.332,4.994 -2.378,5.167 -2.424,5.34 l -0.03,0.117 0.092,0.076 0.005,0.005 c 0.02,0.02 0.045,0.036 0.065,0.051 0.097,0.076 0.194,0.137 0.29,0.198 0.61,0.376 1.306,0.564 2.002,0.564 0.696,0 1.392,-0.188 2.007,-0.564 C 2.063,5.751 2.119,5.716 2.174,5.675 2.22,5.645 2.261,5.614 2.307,5.579 2.322,5.568 2.337,5.558 2.352,5.543 L 2.454,5.467 2.424,5.345 C 2.383,5.177 2.337,5.01 2.286,4.842 1.849,3.353 1.062,1.773 0.163,0.274 Z m 4.659,-6.341 c -0.472,0.539 -1.738,2.012 -3.094,3.902 l -0.071,0.097 0.056,0.101 c 0.731,1.382 1.453,2.886 1.788,4.456 V 2.22 c 0.097,0.432 0.158,0.864 0.183,1.301 0.005,0.096 0.01,0.198 0.01,0.3 V 3.826 C 3.536,3.907 3.536,3.988 3.536,4.07 3.526,5.045 3.374,6.071 2.876,6.925 2.363,7.799 1.509,8.454 0,8.551 -1.509,8.454 -2.357,7.799 -2.876,6.925 -3.389,6.041 -3.536,4.928 -3.536,3.973 c 0,-0.157 0.005,-0.32 0.015,-0.478 V 3.485 C -3.48,2.789 -3.353,2.093 -3.155,1.423 V 1.412 c 0.066,-0.223 0.142,-0.442 0.223,-0.66 0.193,-0.503 0.407,-1.001 0.635,-1.489 0.122,-0.264 0.255,-0.523 0.382,-0.777 0.066,-0.127 0.127,-0.254 0.193,-0.381 0.04,-0.081 0.177,-0.254 0.177,-0.346 l 0.056,-0.101 -0.071,-0.097 c -1.356,-1.89 -2.626,-3.368 -3.099,-3.902 l 1.606,-0.492 -0.056,-2.155 c 1.153,1.265 2.139,2.551 2.951,3.785 L 0,-4.964 0.158,-5.203 c 0.818,-1.234 1.798,-2.52 2.951,-3.78 l -0.055,2.144 z"
           style="fill:#de5b1d;fill-opacity:1;fill-rule:nonzero;stroke:none"
           id="path1118" /></g><g
         id="g1120"
         transform="matrix(0.35277777,0,0,-0.35277777,-303.57418,464.24756)"
         clip-path="url(#clipPath4693)"><g
           id="g1122" /><g
           id="g1134"><g
             clip-path="url(#clipPath1126)"
             opacity="0.199997"
             id="g1132"><g
               transform="translate(908.8977,535.5764)"
               id="g1130"><path
                 d="m 0,0 c -0.198,0.671 -0.325,1.367 -0.366,2.063 v 0.01 c 0.158,0.894 0.574,1.524 1.067,1.961 L 0.732,3.917 C 0.777,3.745 0.823,3.572 0.874,3.389 0.31,2.754 -0.112,1.748 0,0"
                 style="fill:#142514;fill-opacity:1;fill-rule:nonzero;stroke:none"
                 id="path1128" /></g></g></g></g><g
         id="g1136"
         transform="matrix(0.35277777,0,0,-0.35277777,-303.57418,464.24756)"
         clip-path="url(#clipPath4687)"><g
           id="g1138" /><g
           id="g1150"><g
             clip-path="url(#clipPath1142)"
             opacity="0.100006"
             id="g1148"><g
               transform="translate(909.7614,539.7426)"
               id="g1146"><path
                 d="M 0,0 C -0.02,-0.015 -0.046,-0.03 -0.066,-0.051 -0.046,-0.03 -0.02,-0.01 0,0.005 Z"
                 style="fill:#142514;fill-opacity:1;fill-rule:nonzero;stroke:none"
                 id="path1144" /></g></g></g></g><g
         id="g1152"
         transform="matrix(0.35277777,0,0,-0.35277777,-303.57418,464.24756)"
         clip-path="url(#clipPath4681)"><g
           id="g1154" /><g
           id="g1166"><g
             clip-path="url(#clipPath1158)"
             opacity="0.100006"
             id="g1164"><g
               transform="translate(914.3595,539.7325)"
               id="g1162"><path
                 d="M 0,0 C 0.051,-0.036 0.097,-0.071 0.147,-0.112 L 0.046,-0.036 C 0.031,-0.025 0.015,-0.01 0,0"
                 style="fill:#142514;fill-opacity:1;fill-rule:nonzero;stroke:none"
                 id="path1160" /></g></g></g></g><g
         id="g1168"
         transform="matrix(0.35277777,0,0,-0.35277777,-303.57418,464.24756)"
         clip-path="url(#clipPath4675)"><g
           id="g1170" /><g
           id="g1182"><g
             clip-path="url(#clipPath1174)"
             opacity="0.199997"
             id="g1180"><g
               transform="translate(915.584,537.9796)"
               id="g1178"><path
                 d="m 0,0 v -0.005 c 0,-0.102 -0.005,-0.203 -0.01,-0.3 -0.026,-0.437 -0.086,-0.869 -0.183,-1.301 -0.117,1.311 -0.544,2.104 -1.052,2.622 0.051,0.168 0.097,0.335 0.137,0.503 l 0.031,0.122 C -0.625,1.27 -0.224,0.742 0,0"
                 style="fill:#142514;fill-opacity:1;fill-rule:nonzero;stroke:none"
                 id="path1176" /></g></g></g></g><g
         id="g1184"
         transform="matrix(0.35277777,0,0,-0.35277777,-49.899835,276.72561)"
         clip-path="url(#clipPath4669)"><path
           d="M 0,0 C -0.026,-0.575 -0.242,-1.053 -0.647,-1.432 -1.053,-1.811 -1.53,-2 -2.079,-2 c -0.627,0 -1.124,0.189 -1.49,0.568 -0.367,0.379 -0.549,0.857 -0.549,1.432 v 23.454 c 0,0.574 0.196,1.052 0.588,1.431 0.392,0.379 0.902,0.569 1.53,0.569 0.523,0 0.986,-0.19 1.392,-0.569 C -0.203,24.506 0,24.028 0,23.454 Z"
           style="fill:#142514;fill-opacity:1;fill-rule:nonzero;stroke:none"
           id="path1186" /></g><g
         id="g1188"
         transform="matrix(0.35277777,0,0,-0.35277777,-43.950379,277.43123)"
         clip-path="url(#clipPath4663)"><path
           d="M 0,0 C -0.627,0 -1.137,0.189 -1.529,0.569 -1.921,0.947 -2.118,1.425 -2.118,2 V 25.493 H 2.118 V 2 C 2.118,1.425 1.915,0.947 1.51,0.569 1.104,0.189 0.601,0 0,0 m -8.903,23.689 c -0.549,0 -1.019,0.176 -1.412,0.529 -0.392,0.353 -0.588,0.804 -0.588,1.353 0,0.575 0.196,1.033 0.588,1.373 0.393,0.34 0.863,0.51 1.412,0.51 H 8.903 c 0.575,0 1.052,-0.176 1.432,-0.53 0.378,-0.353 0.569,-0.804 0.569,-1.353 0,-0.575 -0.191,-1.033 -0.569,-1.372 -0.38,-0.34 -0.857,-0.51 -1.432,-0.51 z"
           style="fill:#142514;fill-opacity:1;fill-rule:nonzero;stroke:none"
           id="path1190" /></g><g
         id="g1192"
         transform="matrix(0.35277777,0,0,-0.35277777,-36.728206,272.49185)"
         clip-path="url(#clipPath4657)"><path
           d="m 0,0 h 9.373 c 0.602,0.026 1.177,0.261 1.726,0.706 0.549,0.444 1.006,1.065 1.373,1.863 0.366,0.797 0.549,1.693 0.549,2.687 0,1.255 -0.373,2.307 -1.118,3.157 -0.745,0.849 -1.628,1.274 -2.647,1.274 H 0.079 L 0.51,10.668 V -0.823 Z m -1.255,-14.001 c -0.628,0 -1.177,0.189 -1.647,0.568 -0.471,0.379 -0.706,0.856 -0.706,1.432 v 23.454 c 0,0.574 0.189,1.052 0.568,1.431 0.379,0.379 0.857,0.568 1.432,0.568 h 11.06 c 1.412,0 2.706,-0.346 3.883,-1.039 1.176,-0.693 2.124,-1.647 2.843,-2.863 0.719,-1.216 1.079,-2.621 1.079,-4.216 0,-1.046 -0.21,-2.039 -0.628,-2.981 -0.419,-0.941 -0.98,-1.778 -1.686,-2.51 -0.706,-0.732 -1.504,-1.294 -2.393,-1.686 l -0.431,0.784 c 0.81,-0.314 1.516,-0.739 2.118,-1.274 0.601,-0.537 1.078,-1.164 1.431,-1.883 0.353,-0.719 0.542,-1.524 0.569,-2.412 0.078,-0.811 0.15,-1.484 0.216,-2.02 0.065,-0.536 0.163,-0.974 0.294,-1.314 0.13,-0.34 0.366,-0.602 0.706,-0.784 0.47,-0.262 0.765,-0.654 0.882,-1.177 0.118,-0.523 0.006,-0.994 -0.333,-1.412 -0.235,-0.313 -0.536,-0.516 -0.902,-0.608 -0.367,-0.091 -0.732,-0.104 -1.099,-0.039 -0.366,0.065 -0.666,0.163 -0.902,0.294 -0.444,0.261 -0.875,0.634 -1.293,1.118 -0.419,0.484 -0.759,1.157 -1.02,2.02 -0.262,0.863 -0.393,2 -0.393,3.412 0,0.653 -0.104,1.209 -0.313,1.667 -0.21,0.457 -0.497,0.843 -0.863,1.157 -0.366,0.314 -0.798,0.536 -1.295,0.667 -0.496,0.13 -1.046,0.196 -1.646,0.196 h -8.315 l 0.549,0.823 v -9.373 c 0,-0.576 -0.157,-1.053 -0.471,-1.432 -0.313,-0.379 -0.745,-0.568 -1.294,-0.568"
           style="fill:#142514;fill-opacity:1;fill-rule:nonzero;stroke:none"
           id="path1194" /></g><g
         id="g1196"
         transform="matrix(0.35277777,0,0,-0.35277777,-21.217979,267.73228)"
         clip-path="url(#clipPath4651)"><path
           d="M 0,0 C 0.549,0 1,-0.196 1.353,-0.588 1.706,-0.98 1.883,-1.451 1.883,-2 v -14.865 c 0,-2.091 -0.458,-3.961 -1.373,-5.608 -0.916,-1.647 -2.17,-2.935 -3.765,-3.863 -1.596,-0.929 -3.439,-1.392 -5.53,-1.392 -2.066,0 -3.903,0.463 -5.511,1.392 -1.608,0.928 -2.876,2.216 -3.804,3.863 -0.929,1.647 -1.392,3.517 -1.392,5.608 V -2 c 0,0.549 0.196,1.02 0.588,1.412 0.392,0.392 0.902,0.588 1.53,0.588 0.496,0 0.947,-0.196 1.353,-0.588 0.405,-0.392 0.607,-0.863 0.607,-1.412 v -14.865 c 0,-1.386 0.307,-2.595 0.922,-3.627 0.614,-1.034 1.432,-1.844 2.451,-2.432 1.02,-0.588 2.105,-0.882 3.256,-0.882 1.228,0 2.366,0.294 3.412,0.882 1.045,0.588 1.895,1.398 2.549,2.432 0.653,1.032 0.981,2.241 0.981,3.627 V -2 c 0,0.549 0.163,1.02 0.49,1.412 C -1.027,-0.196 -0.576,0 0,0"
           style="fill:#142514;fill-opacity:1;fill-rule:nonzero;stroke:none"
           id="path1198" /></g><g
         id="g1200"
         transform="matrix(0.35277777,0,0,-0.35277777,-14.922907,277.56956)"
         clip-path="url(#clipPath4645)"><path
           d="m 0,0 c -1.883,0 -3.556,0.255 -5.02,0.765 -1.465,0.509 -2.863,1.366 -4.197,2.569 -0.288,0.235 -0.503,0.503 -0.647,0.804 -0.144,0.3 -0.216,0.608 -0.216,0.921 0,0.497 0.183,0.941 0.549,1.334 0.367,0.392 0.824,0.588 1.373,0.588 0.418,0 0.81,-0.144 1.177,-0.431 0.993,-0.916 2.032,-1.609 3.118,-2.079 1.085,-0.471 2.359,-0.706 3.824,-0.706 1.045,0 2.006,0.17 2.882,0.51 0.876,0.339 1.576,0.797 2.099,1.373 0.523,0.574 0.784,1.241 0.784,2 C 5.7,8.589 5.425,9.36 4.903,9.962 c -0.524,0.601 -1.289,1.111 -2.295,1.529 -1.007,0.418 -2.216,0.759 -3.628,1.02 -1.307,0.261 -2.484,0.601 -3.529,1.02 -1.047,0.418 -1.929,0.947 -2.648,1.588 -0.719,0.641 -1.274,1.405 -1.667,2.295 -0.392,0.888 -0.588,1.908 -0.588,3.059 0,1.594 0.418,2.974 1.255,4.137 0.837,1.163 1.974,2.059 3.412,2.687 1.438,0.627 3.06,0.941 4.863,0.941 1.647,0 3.19,-0.255 4.629,-0.764 1.437,-0.51 2.601,-1.197 3.49,-2.06 0.627,-0.549 0.941,-1.137 0.941,-1.764 0,-0.498 -0.19,-0.942 -0.568,-1.334 -0.38,-0.392 -0.818,-0.588 -1.315,-0.588 -0.366,0 -0.679,0.104 -0.941,0.313 -0.418,0.445 -0.98,0.844 -1.686,1.197 -0.706,0.353 -1.458,0.647 -2.255,0.882 -0.798,0.235 -1.563,0.353 -2.295,0.353 -1.176,0 -2.183,-0.163 -3.019,-0.49 -0.837,-0.327 -1.478,-0.772 -1.922,-1.334 -0.445,-0.562 -0.667,-1.235 -0.667,-2.019 0,-0.89 0.255,-1.615 0.765,-2.177 0.509,-0.563 1.222,-1.02 2.137,-1.373 0.915,-0.353 1.961,-0.673 3.138,-0.961 C 1.948,15.805 3.236,15.453 4.373,15.06 5.511,14.668 6.471,14.164 7.255,13.55 8.04,12.936 8.641,12.171 9.06,11.256 9.478,10.34 9.687,9.203 9.687,7.844 9.687,6.275 9.242,4.902 8.354,3.726 7.465,2.549 6.295,1.633 4.844,0.98 3.392,0.327 1.778,0 0,0"
           style="fill:#142514;fill-opacity:1;fill-rule:nonzero;stroke:none"
           id="path1202" /></g><g
         id="g1204"
         transform="matrix(0.35277777,0,0,-0.35277777,-53.828968,268.29951)"
         clip-path="url(#clipPath4639)"><path
           d="m 0,0 c 0.575,-0.288 0.908,-0.732 1,-1.334 0.091,-0.601 -0.072,-1.15 -0.49,-1.647 -0.288,-0.418 -0.654,-0.647 -1.098,-0.686 -0.446,-0.039 -0.902,0.059 -1.373,0.294 -0.733,0.392 -1.523,0.706 -2.373,0.941 -0.85,0.236 -1.733,0.353 -2.647,0.353 -1.49,0 -2.831,-0.249 -4.02,-0.745 -1.191,-0.497 -2.216,-1.19 -3.079,-2.079 -0.863,-0.889 -1.523,-1.948 -1.981,-3.176 -0.457,-1.23 -0.686,-2.589 -0.686,-4.079 0,-1.647 0.248,-3.105 0.745,-4.373 0.497,-1.269 1.183,-2.341 2.059,-3.216 0.876,-0.877 1.909,-1.53 3.099,-1.961 1.189,-0.432 2.476,-0.647 3.863,-0.647 0.888,0 1.758,0.104 2.608,0.313 0.849,0.209 1.653,0.523 2.412,0.942 0.471,0.235 0.927,0.319 1.373,0.254 0.444,-0.065 0.823,-0.294 1.137,-0.686 0.418,-0.549 0.575,-1.111 0.471,-1.686 -0.105,-0.576 -0.432,-0.994 -0.981,-1.255 -0.654,-0.367 -1.373,-0.687 -2.157,-0.961 -0.785,-0.275 -1.582,-0.484 -2.392,-0.628 -0.811,-0.143 -1.635,-0.215 -2.471,-0.215 -1.883,0 -3.667,0.313 -5.354,0.941 -1.686,0.627 -3.177,1.542 -4.471,2.745 -1.294,1.203 -2.321,2.68 -3.079,4.432 -0.758,1.751 -1.137,3.752 -1.137,6.001 0,2.013 0.353,3.869 1.059,5.569 0.706,1.699 1.692,3.177 2.961,4.432 1.268,1.255 2.752,2.228 4.452,2.922 1.699,0.692 3.555,1.039 5.569,1.039 1.255,0 2.477,-0.157 3.667,-0.471 C -2.125,1.02 -1.02,0.575 0,0"
           style="fill:#142514;fill-opacity:1;fill-rule:nonzero;stroke:none"
           id="path1206" /></g></g></g></svg>
