<?xml version="1.0" encoding="UTF-8"?>
<svg id="Layer_1" data-name="Layer 1" xmlns="http://www.w3.org/2000/svg" viewBox="0 0 1684.24 345.57">
  <defs>
    <style>
      .cls-1 {
        fill: #bcbec1;
      }

      .cls-2, .cls-3, .cls-4 {
        fill-rule: evenodd;
      }

      .cls-2, .cls-5 {
        fill: #3ab550;
      }

      .cls-3 {
        fill: #6c6d70;
      }

      .cls-4 {
        fill: #414143;
      }
    </style>
  </defs>
  <path class="cls-4" d="M482.47,57.85h0v109.75h19.24v-39.42c0-11.66,7.85-21.11,19.24-21.11,10.27,0,17.74,5.93,17.74,20v40.52h19.4v-40.7c0-22.76-9.89-37.58-31.93-37.58-9,0-17.57,2.6-24.48,11.66v-43.12h-19.21ZM591.17,120.06h0c2.82-10,11.21-15,21.68-15,11.19,0,19,5,20.35,15h-42.03ZM651.7,135.95h0c3-31.82-13.27-47.93-39.42-47.93s-41.45,17-41.45,40.52,16.07,41.1,43,41.1c11.75,0,25.19-4.08,33.4-12.41l-12.32-12.22c-4.47,4.64-13.82,7.22-20.91,7.22-13.65,0-21.85-6.83-23.15-16.28h60.85ZM720.43,145.2h0c-4.67,4.81-10.83,6.48-17,6.48-12.13,0-22.21-7.77-22.21-22.55,0-13.51,9.5-22.95,22.4-22.95,5.84.01,11.45,2.26,15.68,6.29l12.17-12.78c-8.41-8.31-17-11.47-28-11.47-22.6,0-41.45,13.51-41.45,40.91s18.85,40.89,41.45,40.89c11.4,0,20.91-3.54,30.06-12.22l-13.1-12.6ZM741.53,58.2h0v109.4h19.22v-34.82l30.43,34.77h23.37v-1.29l-36.23-39.6,31.77-35.12v-1.1h-23l-26.36,31.09v-63.29l-19.2-.04ZM866.47,151.09h0c-13.09,0-22-10-22-22s8.22-21.86,22-21.86,22.23,9.83,22.23,21.86-9,22-22.23,22ZM868.47,169.6c-8.2,0-20.33-2.58-25.76-11.1v41.46h-19.39v-109.53h18.1l1.33,10.74c6-8.7,16.43-12.41,25.21-12.41,17.46,0,30.66,9.26,36.61,23h-.11c2.26,5.14,3.43,10.7,3.42,16.32.08,23.11-13.48,41.49-39.37,41.49l-.04.03ZM459.47,139.6c-7.28,7.22-18.12,11.1-27.82,11.1-27.26,0-37.92-19.05-38.11-37.21s11.4-37.94,38.11-37.94c9.71,0,19.43,3.16,26.7,10.18l14-13.31c-10.82-10.71-25.44-16.69-40.66-16.64-40,0-58.84,29.07-58.65,57.72s17.55,56.63,58.65,56.63c16.07,0,30.62-5.18,42-16.28l-14.22-14.25ZM977.58,106.12h0c12.9,0,21.1,11.27,21.1,22.95s-7.1,22.76-21.1,22.76-21.31-10.93-21.31-22.76,7.3-22.95,21.31-22.95ZM1107.3,237.51h0c35.11,10.37,19.07,59.4-13.61,50.7-11.77-3.16-23.19-15.93-18.89-31.82,3.36-12.05,16.26-23.69,32.5-18.88ZM1104.88,241.4h0c28.95,5.73,20.56,48.83-8.41,43.48-12.06-2.23-20.03-13.82-17.8-25.88.03-.14.05-.28.08-.42,2.4-11.91,14-19.62,25.91-17.23.07.01.15.03.22.05h0ZM937.28,132.62h0c-.55,1.96-1.58,3.74-3,5.2,0,16.47-1.88,27.36,7.28,41.25,8.13,12.18,21.78,19.52,36.42,19.61,24.09.19,42.75-18.87,44.27-39.79.36-5.18-.39-13.7-.19-20.53-2.31-1.88-3.73-4.63-3.92-7.6-.77,21.47-15.9,38.69-40.53,38.69s-38.86-16.28-40.34-36.83h0ZM982.47,215.34h0c-.19,16.83.39,12.2-2.78,14.43-1.05,15.7-1.22,30.92.64,44.62,9.16,68.46,81.72,81,114,17.18-2.07-1.48-6.18-2.19-9-4.06-25.79-16.66-13.25-53.12,14-53.83,34-1.12,43.52,45.87,9.14,57.18-30,72.19-123.21,77.88-140-12.8-3.17-17.57-2.61-30.17-3.17-48.29-3.92-2.41-3.36,4.06-3.36-16.84-17.18-6.85-26.53-12.93-34.54-27.57-7.66-13.89-8-29-7.66-46.25-7.4-5.58-5-20.38,6.53-20.38,5.03,0,9.45,3.33,10.83,8.16,1.13-21.11,16.26-38.12,40.34-38.12s40.72,18.14,40.72,40c.74-6.22,6.39-10.66,12.6-9.92,5.68.68,9.97,5.48,10,11.21-.04,3.27-1.47,6.37-3.94,8.52.19,9.08-.17,22.59-.54,26.11-2.63,17.57-12.52,33.13-27.65,42-9.33,5.54-14.19,6.29-26.15,8.7v-.05ZM1047.47,68.59h0c0,15,22.77,15,22.77,0s-22.77-14.8-22.77,0ZM1068.55,90.06h0v77.54h-19.46v-77.54h19.46ZM1162.49,167.6h0v-40.52c0-24.24-14.55-37.94-33-37.94-9.72,0-17.55,3.87-25.61,11.64l-1.3-10.54h-17.18v77.35h19.22v-39.41c0-11.66,8.05-21.65,19.81-21.65s18.87,8.89,18.87,20.72v40.35h19.19ZM1183.8,70.6h0v20h-14.59v16.45h14.59v33.33c0,19.24,11,28.84,28,28.13,5.46.07,10.87-1.01,15.88-3.16l-5.41-16.28c-2.93,1.39-6.11,2.15-9.35,2.23-6,0-10.08-3.54-10.08-10.91v-33.32h21.66v-16.45h-21.48v-22l-19.22,1.98Z"/>
  <path class="cls-5" d="M1365.3,127.58l-54-68.26h-16.86v110.07h20.8v-74.21l58,74.21h12.85V59.33h-20.8v68.25ZM1458.55,57.28c-38.11,0-56.7,29-56.7,57.94s17.95,56.67,56.7,56.67,56.23-28.41,56.55-56.84c.32-28.73-18.59-57.78-56.55-57.78h0ZM1458.55,76.13c26,0,36.38,20.72,36.06,39.25-.32,18.06-10.08,37.53-36.06,37.53s-35.74-19.31-36.23-37.38c-.47-18.53,10.25-39.4,36.23-39.4ZM1684.24,59.32h-23.3l-25.21,79.39-27.56-79.39h-13.54l-26.79,79.39-26-79.39h-23.32l40.49,110.07h17.63l13.45-34.28,11.51-35.05,11.62,34.72,13.69,34.59h17.65l39.68-110.05Z"/>
  <path class="cls-1" d="M26.41,38.14c39.84-1.89,96,31.91,104.68,72.94,42.07-32.64,111.29-86.69,198.62-98.24-71,31.74-157.1,91.43-201.78,137l-14.07,12.24-4.36-18.08C92.74,74,53.42,50.25,26.41,38.14Z"/>
  <path class="cls-3" d="M37.22,38.46C87.09-5.08,176.09-14.32,240.63,24.55c4.7,2.83,9.23,5.93,13.57,9.28-52,21.92-94,54.69-123.12,77.24-7.88-37.43-55.36-68.84-93.87-72.62h0Z"/>
  <path class="cls-2" d="M250.92,193.46c.73,13.94,15.49,27.53,25.51,35.24,5,3.84,8.5,4.74,13,8.33-16.76,12.61-58.07,4.87-81.59-6.74-8.79-4.32-13-11-25-8.76C48.18,246.44-56.56,126.36,33.84,41.61c26.38,13.14,60.43,38.48,75.73,102.38l4.36,18.08,14.08-12.24c32.08-32.72,85.49-72.69,139.34-104.4,42.6,43.51,40.23,107.32-16.35,148l-.08.03Z"/>
</svg>