<?xml version="1.0" encoding="UTF-8"?>
<svg id="svg5" xmlns="http://www.w3.org/2000/svg" xmlns:xlink="http://www.w3.org/1999/xlink" viewBox="0 0 140.994 66.501">
  <defs>
    <style>
      .cls-1 {
        fill: #de5b1d;
      }

      .cls-2 {
        fill: #437844;
      }

      .cls-3 {
        fill: none;
      }

      .cls-4 {
        clip-path: url(#clippath-1);
      }

      .cls-5 {
        opacity: .1;
      }

      .cls-6 {
        clip-path: url(#clippath-3);
      }

      .cls-7 {
        fill: #142514;
      }

      .cls-8 {
        clip-path: url(#clippath-2);
      }

      .cls-9 {
        opacity: .2;
      }

      .cls-10 {
        clip-path: url(#clippath);
      }
    </style>
    <clipPath id="clippath">
      <rect class="cls-3" x="120.155" y="52.056" width="1.24" height="4.034"/>
    </clipPath>
    <clipPath id="clippath-1">
      <rect class="cls-3" x="121.319" y="51.919" width=".066" height=".056"/>
    </clipPath>
    <clipPath id="clippath-2">
      <rect class="cls-3" x="125.983" y="51.934" width=".147" height=".112"/>
    </clipPath>
    <clipPath id="clippath-3">
      <rect class="cls-3" x="125.962" y="52.046" width="1.245" height="3.247"/>
    </clipPath>
  </defs>
  <g id="layer1">
    <g id="g6137">
      <g id="g936">
        <path id="path938" class="cls-2" d="M10.675,16.995s-3.465-6.975,3.863-10.462C21.866,3.045,22.086,3.84,22.616,0,22.616,0,26.236,16.377,11.359,16.995c0,0,3.355-5.959,6.225-7.902,0,0-3.797.927-6.909,7.902"/>
      </g>
      <g id="g940">
        <path id="path942" class="cls-2" d="M9.323,16.899s1.047-3.542-2.662-4.571c-3.709-1.029-3.747-.64-4.309-2.391,0,0-.349,7.948,6.651,7.018,0,0-2.055-2.509-3.555-3.182,0,0,1.85.122,3.875,3.126"/>
      </g>
      <g id="g944">
        <path id="path946" class="cls-2" d="M8.987,11.877s2.115-1.953.043-4.122c-2.072-2.169-2.253-1.923-1.93-3.319,0,0-3.406,5.179,1.651,7.351,0,0-.375-2.5-1.11-3.548,0,0,1.189.82,1.346,3.638"/>
      </g>
      <g id="g948">
        <path id="path950" class="cls-7" d="M53.533,55.234c0-.545-.109-1.018-.327-1.42-.218-.401-.513-.715-.885-.943-.371-.228-.785-.342-1.24-.342s-.873.114-1.249.342c-.377.228-.674.542-.892.943-.218.402-.327.875-.327,1.42,0,.525.109.991.327,1.397.218.406.515.724.892.951.376.228.792.342,1.249.342s.869-.114,1.24-.342c.372-.227.667-.545.885-.951.218-.406.327-.872.327-1.397M55.019,55.234c0,.793-.173,1.494-.52,2.103s-.817,1.088-1.412,1.434c-.594.347-1.263.521-2.006.521s-1.413-.174-2.007-.521c-.595-.346-1.068-.825-1.42-1.434-.351-.609-.527-1.31-.527-2.103,0-.803.176-1.509.527-2.118.352-.61.825-1.09,1.42-1.442.594-.351,1.264-.527,2.007-.527s1.412.176,2.006.527c.595.352,1.065.832,1.412,1.442.347.609.52,1.315.52,2.118"/>
      </g>
      <g id="g952">
        <path id="path954" class="cls-7" d="M64.888,51.147c.703,0,1.248.146,1.635.438.386.293.656.684.81,1.174.153.491.23,1.039.23,1.643v3.983c0,.219-.072.399-.215.543-.144.144-.32.215-.528.215-.218,0-.399-.071-.543-.215-.143-.144-.215-.324-.215-.543v-3.968c0-.357-.05-.676-.148-.959-.1-.282-.268-.508-.506-.676-.238-.169-.575-.253-1.011-.253-.406,0-.763.084-1.07.253-.307.168-.547.394-.72.676-.174.283-.261.602-.261.959v3.968c0,.219-.072.399-.216.543-.143.144-.319.215-.527.215-.218,0-.399-.071-.542-.215-.144-.144-.216-.324-.216-.543v-6.302c0-.218.072-.399.216-.542.143-.144.324-.216.542-.216.208,0,.384.072.527.216.144.143.216.324.216.542v.833l-.268.148c.07-.218.191-.438.365-.661.173-.223.384-.431.631-.625.248-.193.526-.346.833-.46.307-.114.634-.171.981-.171"/>
      </g>
      <g id="g956">
        <path id="path958" class="cls-7" d="M77.255,51.147c.535,0,1.01.057,1.427.171.416.114.74.272.973.475.233.204.349.439.349.706,0,.169-.049.325-.148.469-.1.143-.248.215-.446.215-.149,0-.27-.022-.364-.067-.094-.044-.179-.104-.253-.178s-.171-.141-.29-.201c-.109-.069-.272-.121-.49-.156-.218-.034-.407-.052-.565-.052-.525,0-.979.119-1.36.357-.382.238-.679.557-.892.959-.213.401-.319.859-.319,1.374s.106.977.319,1.383.505.728.877.966.805.357,1.301.357c.287,0,.527-.023.721-.067.193-.045.354-.102.483-.171.158-.089.289-.181.394-.275.104-.094.25-.141.438-.141.218,0,.384.066.498.2.114.134.171.3.171.498,0,.218-.131.429-.394.632s-.612.369-1.048.498c-.436.128-.921.193-1.456.193-.764,0-1.43-.178-2-.535s-1.01-.842-1.323-1.457c-.312-.614-.468-1.308-.468-2.081,0-.782.164-1.478.491-2.088.327-.609.78-1.092,1.36-1.449.58-.357,1.251-.535,2.014-.535"/>
      </g>
      <g id="g960">
        <path id="path962" class="cls-7" d="M91.658,55.234c0-.545-.11-1.018-.327-1.42-.218-.401-.513-.715-.885-.943-.371-.228-.785-.342-1.24-.342s-.873.114-1.249.342c-.377.228-.674.542-.892.943-.218.402-.327.875-.327,1.42,0,.525.109.991.327,1.397.218.406.515.724.892.951.376.228.792.342,1.249.342s.869-.114,1.24-.342c.372-.227.667-.545.885-.951.217-.406.327-.872.327-1.397M93.144,55.234c0,.793-.173,1.494-.52,2.103s-.817,1.088-1.412,1.434c-.594.347-1.263.521-2.006.521s-1.413-.174-2.007-.521c-.595-.346-1.068-.825-1.42-1.434-.352-.609-.527-1.31-.527-2.103,0-.803.175-1.509.527-2.118.352-.61.825-1.09,1.42-1.442.594-.351,1.264-.527,2.007-.527s1.412.176,2.006.527c.595.352,1.065.832,1.412,1.442.347.609.52,1.315.52,2.118"/>
      </g>
      <g id="g964">
        <path id="path966" class="cls-7" d="M100.591,58.385c0,.218-.072.399-.216.542-.143.144-.319.216-.527.216s-.384-.072-.528-.216c-.144-.143-.216-.324-.216-.542v-9.483c0-.218.075-.399.223-.542.149-.144.327-.216.536-.216.217,0,.393.072.527.216.134.143.201.324.201.542v9.483Z"/>
      </g>
      <g id="g968">
        <path id="path970" class="cls-7" d="M112.823,55.234c0-.545-.109-1.018-.327-1.42-.218-.401-.513-.715-.885-.943-.371-.228-.785-.342-1.24-.342s-.873.114-1.249.342c-.377.228-.674.542-.892.943-.218.402-.327.875-.327,1.42,0,.525.109.991.327,1.397.218.406.515.724.892.951.376.228.792.342,1.249.342s.869-.114,1.24-.342c.372-.227.667-.545.885-.951.218-.406.327-.872.327-1.397M114.309,55.234c0,.793-.173,1.494-.52,2.103s-.817,1.088-1.412,1.434c-.594.347-1.263.521-2.006.521s-1.413-.174-2.007-.521c-.595-.346-1.068-.825-1.42-1.434-.352-.609-.527-1.31-.527-2.103,0-.803.175-1.509.527-2.118.352-.61.825-1.09,1.42-1.442.594-.351,1.264-.527,2.007-.527s1.412.176,2.006.527c.595.352,1.065.832,1.412,1.442.347.609.52,1.315.52,2.118"/>
      </g>
      <g id="g972">
        <path id="path974" class="cls-7" d="M139.518,51.265c.218,0,.396.072.535.216.139.143.208.324.208.542v6.391c0,.872-.166,1.581-.498,2.126s-.778.944-1.337,1.196c-.561.253-1.192.379-1.895.379-.357,0-.714-.032-1.071-.096-.357-.065-.649-.151-.877-.26-.238-.11-.406-.246-.505-.409-.099-.164-.114-.339-.045-.528.069-.237.188-.399.357-.483.168-.084.342-.091.52-.022.169.069.391.158.669.268.277.108.595.163.952.163.485,0,.894-.079,1.225-.238.333-.158.588-.406.766-.743s.268-.773.268-1.308v-1.026l.238.372c-.159.317-.37.585-.632.803-.263.218-.567.386-.914.505-.347.119-.734.178-1.16.178-.545,0-1.013-.121-1.404-.364-.392-.243-.694-.579-.907-1.01-.213-.432-.32-.924-.32-1.479v-4.415c0-.218.072-.399.216-.542.143-.144.325-.216.542-.216.208,0,.384.072.528.216.144.143.215.324.215.542v4.013c0,.654.145,1.133.432,1.435s.713.453,1.278.453c.377,0,.703-.079.981-.238.277-.158.495-.379.654-.661.158-.283.238-.612.238-.989v-4.013c0-.218.069-.399.208-.542.138-.144.317-.216.535-.216"/>
      </g>
      <g id="g976">
        <path id="path978" class="cls-7" d="M82.204,57.418s0,.001.001.001h.001-.002Z"/>
      </g>
      <g id="g980">
        <path id="path982" class="cls-1" d="M123.676,57.513l-.163-.274c-.868-1.453-1.641-2.993-2.093-4.446-.01-.03-.015-.061-.025-.091-.051-.183-.097-.356-.143-.529l-.03-.117.091-.076.005-.005c.021-.02.046-.036.066-.051.097-.076.194-.137.29-.198.61-.376,1.306-.564,2.002-.564s1.392.188,2.007.564c.056.036.112.071.167.112.046.03.087.061.133.096.015.01.03.021.045.036l.102.076-.031.122c-.04.168-.086.335-.137.503-.437,1.489-1.224,3.069-2.123,4.568l-.163.274ZM128.335,63.854c-.473-.539-1.738-2.012-3.094-3.902l-.071-.097.056-.101c.731-1.382,1.453-2.886,1.788-4.456v-.005c.096-.432.158-.864.183-1.301.005-.096.01-.198.01-.3v-.005c.005-.081.005-.162.005-.244-.01-.975-.162-2.001-.66-2.855-.514-.874-1.367-1.529-2.876-1.626-1.509.097-2.358.752-2.876,1.626-.513.884-.66,1.997-.66,2.952,0,.157.005.32.015.477v.011c.041.696.168,1.392.366,2.062v.01c.066.224.142.443.223.661.193.503.407,1.001.635,1.489.122.264.254.523.382.777.066.127.127.254.193.381.04.082.177.254.177.346l.056.101-.071.097c-1.356,1.89-2.627,3.368-3.099,3.902l1.605.493-.055,2.154c1.153-1.265,2.139-2.551,2.951-3.785l.158-.239.158.239c.817,1.234,1.798,2.52,2.951,3.78l-.056-2.144,1.606-.498Z"/>
      </g>
      <g id="g984">
        <g id="g998">
          <g class="cls-10">
            <g id="g996" class="cls-9">
              <g id="g994">
                <path id="path992" class="cls-7" d="M120.521,56.09c-.198-.671-.325-1.367-.366-2.063v-.01c.158-.894.574-1.524,1.067-1.961l.031.117c.045.172.091.345.142.528-.564.635-.986,1.641-.874,3.389"/>
              </g>
            </g>
          </g>
        </g>
      </g>
      <g id="g1000">
        <g id="g1014">
          <g class="cls-4">
            <g id="g1012" class="cls-5">
              <g id="g1010">
                <path id="path1008" class="cls-7" d="M121.384,51.924c-.02.015-.046.03-.066.051.02-.021.046-.041.066-.056v.005Z"/>
              </g>
            </g>
          </g>
        </g>
      </g>
      <g id="g1016">
        <g id="g1030">
          <g class="cls-8">
            <g id="g1028" class="cls-5">
              <g id="g1026">
                <path id="path1024" class="cls-7" d="M125.982,51.934c.051.036.097.071.147.112l-.101-.076c-.015-.011-.031-.026-.046-.036"/>
              </g>
            </g>
          </g>
        </g>
      </g>
      <g id="g1032">
        <g id="g1046">
          <g class="cls-6">
            <g id="g1044" class="cls-9">
              <g id="g1042">
                <path id="path1040" class="cls-7" d="M127.207,53.687v.005c0,.102-.005.203-.01.3-.026.437-.087.869-.183,1.301-.117-1.311-.544-2.104-1.052-2.622.051-.168.097-.335.137-.503l.031-.122c.452.371.853.899,1.077,1.641"/>
              </g>
            </g>
          </g>
        </g>
      </g>
      <g id="g1048">
        <path id="path1050" class="cls-7" d="M32.16,41.475c-.026.576-.242,1.053-.647,1.432-.406.379-.883.568-1.432.568-.627,0-1.124-.189-1.49-.568-.367-.379-.549-.856-.549-1.432v-23.454c0-.574.196-1.052.588-1.431s.902-.569,1.53-.569c.523,0,.986.19,1.392.569.405.379.608.857.608,1.431v23.454Z"/>
      </g>
      <g id="g1052">
        <path id="path1054" class="cls-7" d="M49.024,43.476c-.628,0-1.137-.189-1.529-.569-.392-.378-.589-.856-.589-1.431v-23.493h4.236v23.493c0,.575-.203,1.053-.608,1.431-.406.38-.909.569-1.51.569M40.121,19.787c-.549,0-1.019-.176-1.412-.53-.392-.352-.588-.803-.588-1.353,0-.574.196-1.032.588-1.372.393-.34.863-.51,1.412-.51h17.806c.575,0,1.052.176,1.432.529.378.353.569.804.569,1.353,0,.576-.191,1.034-.569,1.373-.38.34-.857.51-1.432.51h-17.806Z"/>
      </g>
      <g id="g1056">
        <path id="path1058" class="cls-7" d="M69.497,29.474h9.373c.602-.026,1.177-.261,1.726-.706.549-.444,1.006-1.065,1.373-1.863.365-.797.549-1.693.549-2.687,0-1.255-.373-2.307-1.118-3.157-.745-.849-1.628-1.275-2.647-1.275h-9.177l.431-.98v11.491l-.51-.823ZM68.242,43.475c-.628,0-1.177-.189-1.647-.568-.471-.379-.706-.856-.706-1.432v-23.454c0-.574.189-1.052.568-1.431.379-.379.857-.569,1.432-.569h11.06c1.412,0,2.706.347,3.883,1.04,1.176.693,2.124,1.647,2.843,2.863s1.079,2.621,1.079,4.216c0,1.046-.21,2.039-.628,2.981-.419.941-.98,1.778-1.686,2.51s-1.504,1.294-2.393,1.686l-.431-.784c.81.314,1.516.739,2.118,1.274.601.537,1.078,1.164,1.431,1.883s.542,1.524.569,2.412c.078.811.15,1.484.216,2.02.065.536.163.974.294,1.314.13.34.366.601.706.784.47.262.765.654.882,1.177.118.523.006.994-.333,1.411-.235.314-.536.517-.902.608-.367.092-.732.105-1.099.04-.366-.065-.666-.163-.902-.294-.444-.262-.875-.634-1.293-1.118-.419-.484-.759-1.157-1.02-2.02-.262-.863-.393-2-.393-3.412,0-.653-.104-1.209-.314-1.667-.209-.457-.496-.843-.862-1.157s-.798-.536-1.295-.667c-.496-.13-1.046-.196-1.646-.196h-8.315l.549-.823v9.373c0,.576-.157,1.053-.471,1.432-.314.379-.745.568-1.294.568"/>
      </g>
      <g id="g1060">
        <path id="path1062" class="cls-7" d="M113.463,15.983c.549,0,1,.196,1.353.588.353.392.53.863.53,1.412v14.865c0,2.092-.458,3.961-1.373,5.608-.916,1.647-2.17,2.935-3.765,3.863-1.596.929-3.439,1.392-5.53,1.392-2.066,0-3.903-.463-5.511-1.392-1.608-.928-2.876-2.216-3.804-3.863-.929-1.647-1.392-3.516-1.392-5.608v-14.865c0-.549.196-1.02.588-1.412.392-.392.902-.588,1.53-.588.496,0,.947.196,1.353.588.405.392.607.863.607,1.412v14.865c0,1.386.307,2.595.922,3.627.614,1.034,1.432,1.844,2.451,2.432,1.02.588,2.105.883,3.256.883,1.228,0,2.366-.295,3.412-.883,1.045-.588,1.895-1.398,2.549-2.432.653-1.032.981-2.241.981-3.627v-14.865c0-.549.163-1.02.49-1.412.326-.392.777-.588,1.353-.588"/>
      </g>
      <g id="g1064">
        <path id="path1066" class="cls-7" d="M131.307,43.868c-1.883,0-3.556-.255-5.02-.765-1.465-.51-2.863-1.366-4.197-2.569-.288-.235-.503-.503-.647-.804-.144-.3-.216-.608-.216-.921,0-.497.183-.941.549-1.334.367-.392.824-.588,1.373-.588.418,0,.81.144,1.177.431.993.916,2.032,1.608,3.118,2.079,1.085.471,2.359.706,3.824.706,1.045,0,2.006-.17,2.882-.51.876-.339,1.576-.797,2.099-1.373.523-.574.784-1.241.784-2-.026-.941-.301-1.712-.824-2.314-.523-.601-1.288-1.111-2.294-1.529-1.007-.418-2.216-.759-3.628-1.02-1.307-.261-2.484-.601-3.529-1.02-1.047-.418-1.929-.947-2.648-1.588s-1.274-1.406-1.667-2.295c-.392-.888-.588-1.908-.588-3.059,0-1.594.418-2.974,1.255-4.138.837-1.162,1.974-2.058,3.412-2.686,1.438-.628,3.06-.941,4.863-.941,1.647,0,3.19.254,4.629.764,1.437.51,2.601,1.197,3.49,2.06.627.549.941,1.137.941,1.764,0,.497-.19.942-.568,1.334-.38.392-.818.588-1.315.588-.366,0-.679-.104-.941-.314-.418-.444-.98-.843-1.686-1.196-.706-.353-1.458-.647-2.255-.882-.798-.236-1.563-.353-2.295-.353-1.176,0-2.183.163-3.019.49-.837.327-1.478.772-1.922,1.334-.445.562-.667,1.235-.667,2.019,0,.889.255,1.615.765,2.177.509.563,1.222,1.02,2.137,1.373.915.353,1.961.673,3.138.961,1.438.313,2.726.666,3.863,1.059,1.138.392,2.098.896,2.882,1.51.785.614,1.386,1.379,1.805,2.294.418.916.627,2.053.627,3.412,0,1.569-.445,2.942-1.333,4.118-.889,1.177-2.059,2.092-3.51,2.746-1.452.653-3.066.98-4.844.98"/>
      </g>
      <g id="g1068">
        <path id="path1070" class="cls-7" d="M21.022,17.59c.575.288.908.732,1,1.334.091.601-.072,1.15-.49,1.647-.288.418-.654.647-1.098.686-.446.039-.902-.059-1.373-.294-.733-.392-1.523-.706-2.373-.941-.85-.236-1.732-.353-2.647-.353-1.49,0-2.831.249-4.02.745-1.191.497-2.216,1.19-3.079,2.078-.863.89-1.523,1.949-1.981,3.177-.457,1.23-.686,2.589-.686,4.079,0,1.647.248,3.105.745,4.373.497,1.269,1.183,2.341,2.059,3.216.876.877,1.909,1.53,3.099,1.961,1.189.432,2.476.647,3.863.647.888,0,1.758-.104,2.608-.313.849-.209,1.653-.523,2.412-.942.471-.235.927-.319,1.373-.255.444.066.823.295,1.137.687.418.549.575,1.112.471,1.686-.105.576-.432.994-.981,1.255-.654.367-1.373.687-2.157.961-.784.275-1.582.484-2.392.628-.811.143-1.635.215-2.471.215-1.883,0-3.667-.313-5.354-.941-1.686-.627-3.177-1.542-4.471-2.745-1.294-1.203-2.321-2.68-3.079-4.432C.379,33.998,0,31.997,0,29.748,0,27.735.353,25.879,1.059,24.179c.706-1.699,1.692-3.177,2.961-4.432,1.268-1.255,2.752-2.229,4.452-2.922,1.699-.692,3.555-1.039,5.569-1.039,1.255,0,2.477.157,3.667.471,1.189.313,2.294.758,3.314,1.333"/>
      </g>
    </g>
  </g>
</svg>