<?xml version="1.0" encoding="UTF-8" standalone="no"?>
<svg
   xmlns:dc="http://purl.org/dc/elements/1.1/"
   xmlns:cc="http://creativecommons.org/ns#"
   xmlns:rdf="http://www.w3.org/1999/02/22-rdf-syntax-ns#"
   xmlns:svg="http://www.w3.org/2000/svg"
   xmlns="http://www.w3.org/2000/svg"
   width="1500"
   height="350"
   viewBox="0 0 396.87498 92.604169"
   version="1.1"
   id="svg8">
  <defs
     id="defs2">
    <style
       id="style833">.cls-1{fill:#414143;}.cls-1,.cls-4,.cls-5{fill-rule:evenodd;}.cls-2,.cls-5{fill:#3ab550;}.cls-3{fill:#bcbec1;}.cls-4{fill:#6c6d70;}</style>
  </defs>
  <metadata
     id="metadata5">
    <rdf:RDF>
      <cc:Work
         rdf:about="">
        <dc:format>image/svg+xml</dc:format>
        <dc:type
           rdf:resource="http://purl.org/dc/dcmitype/StillImage" />
        <dc:title></dc:title>
      </cc:Work>
    </rdf:RDF>
  </metadata>
  <g
     id="layer1">
    <g
       id="g860"
       transform="matrix(0.23535511,0,0,0.23535511,-37.132196,-188.59722)">
      <path
         class="cls-1"
         d="m 640.38,885.07 v 0 109.75 h 19.24 V 955.4 c 0,-11.66 7.85,-21.11 19.24,-21.11 10.27,0 17.74,5.93 17.74,20 v 40.52 H 716 v -40.7 c 0,-22.76 -9.89,-37.58 -31.93,-37.58 -9,0 -17.57,2.6 -24.48,11.66 v -43.12 z m 108.7,62.21 v 0 c 2.82,-10 11.21,-15 21.68,-15 11.19,0 19,5 20.35,15 z m 60.53,15.89 v 0 c 3,-31.82 -13.27,-47.93 -39.42,-47.93 -25.38,0 -41.45,17 -41.45,40.52 0,24.63 16.07,41.1 43,41.1 11.75,0 25.19,-4.08 33.4,-12.41 l -12.32,-12.22 c -4.47,4.64 -13.82,7.22 -20.91,7.22 -13.65,0 -21.85,-6.83 -23.15,-16.28 z m 68.73,9.25 v 0 c -4.67,4.81 -10.83,6.48 -17,6.48 -12.13,0 -22.21,-7.77 -22.21,-22.55 0,-13.51 9.5,-22.95 22.4,-22.95 a 22.82,22.82 0 0 1 15.68,6.29 l 12.17,-12.78 c -8.41,-8.31 -17,-11.47 -28,-11.47 -22.6,0 -41.45,13.51 -41.45,40.91 0,27.4 18.85,40.89 41.45,40.89 11.4,0 20.91,-3.54 30.06,-12.22 z m 21.1,-87 v 0 109.4 h 19.22 V 960 l 30.43,34.77 h 23.37 v -1.29 L 936.23,953.88 968,918.76 v -1.1 h -23 l -26.36,31.09 v -63.29 z m 124.94,92.89 v 0 c -13.09,0 -22,-10 -22,-22 0,-12 8.22,-21.86 22,-21.86 14,0 22.23,9.83 22.23,21.86 0,12.03 -9,22 -22.23,22 z m 2,18.51 c -8.2,0 -20.33,-2.58 -25.76,-11.1 v 41.46 H 981.23 V 917.65 h 18.1 l 1.33,10.74 c 6,-8.7 16.43,-12.41 25.21,-12.41 17.46,0 30.66,9.26 36.61,23 h -0.11 a 40.33,40.33 0 0 1 3.42,16.32 c 0.08,23.11 -13.48,41.49 -39.37,41.49 z m -409,-30 c -7.28,7.22 -18.12,11.1 -27.82,11.1 -27.26,0 -37.92,-19.05 -38.11,-37.21 -0.19,-18.16 11.4,-37.94 38.11,-37.94 9.71,0 19.43,3.16 26.7,10.18 l 14,-13.31 A 57.55,57.55 0 0 0 589.6,883 c -40,0 -58.84,29.07 -58.65,57.72 0.19,28.65 17.55,56.63 58.65,56.63 16.07,0 30.62,-5.18 42,-16.28 z m 518.11,-33.48 v 0 c 12.9,0 21.1,11.27 21.1,22.95 0,11.68 -7.1,22.76 -21.1,22.76 -14.19,0 -21.31,-10.93 -21.31,-22.76 0,-11.83 7.3,-22.95 21.31,-22.95 z m 129.72,131.39 v 0 c 35.11,10.37 19.07,59.4 -13.61,50.7 -11.77,-3.16 -23.19,-15.93 -18.89,-31.82 3.36,-12.05 16.26,-23.69 32.5,-18.88 z m -2.42,3.89 v 0 c 28.95,5.73 20.56,48.83 -8.41,43.48 a 22.21,22.21 0 0 1 -17.72,-26.3 22,22 0 0 1 26.13,-17.18 z m -167.6,-108.78 v 0 a 12.19,12.19 0 0 1 -3,5.2 c 0,16.47 -1.88,27.36 7.28,41.25 a 44.11,44.11 0 0 0 36.42,19.61 c 24.09,0.19 42.75,-18.87 44.27,-39.79 0.36,-5.18 -0.39,-13.7 -0.19,-20.53 a 10.71,10.71 0 0 1 -3.92,-7.6 c -0.77,21.47 -15.9,38.69 -40.53,38.69 -23.9,0 -38.86,-16.28 -40.34,-36.83 z m 45.19,82.72 v 0 c -0.19,16.83 0.39,12.2 -2.78,14.43 -1.05,15.7 -1.22,30.92 0.64,44.62 9.16,68.46 81.72,81 114,17.18 -2.07,-1.48 -6.18,-2.19 -9,-4.06 -25.79,-16.66 -13.25,-53.12 14,-53.83 34,-1.12 43.52,45.87 9.14,57.18 -30,72.19 -123.21,77.88 -140,-12.8 -3.17,-17.57 -2.61,-30.17 -3.17,-48.29 -3.92,-2.41 -3.36,4.06 -3.36,-16.84 -17.18,-6.85 -26.53,-12.93 -34.54,-27.57 -7.66,-13.89 -8,-29 -7.66,-46.25 -7.4,-5.58 -5,-20.38 6.53,-20.38 a 11.26,11.26 0 0 1 10.83,8.16 c 1.13,-21.11 16.26,-38.12 40.34,-38.12 24.65,0 40.72,18.14 40.72,40 a 11.34,11.34 0 0 1 22.6,1.29 11.47,11.47 0 0 1 -3.94,8.52 c 0.19,9.08 -0.17,22.59 -0.54,26.11 -2.63,17.57 -12.52,33.13 -27.65,42 -9.33,5.54 -14.19,6.29 -26.15,8.7 z m 65,-146.75 v 0 c 0,15 22.77,15 22.77,0 0,-14.8 -22.77,-14.8 -22.77,0 z m 21.08,21.47 v 0 77.54 H 1207 v -77.54 z m 93.94,77.54 v 0 -40.52 c 0,-24.24 -14.55,-37.94 -33,-37.94 -9.72,0 -17.55,3.87 -25.61,11.64 l -1.3,-10.54 h -17.18 v 77.35 h 19.22 V 955.4 c 0,-11.66 8.05,-21.65 19.81,-21.65 12.33,0 18.87,8.89 18.87,20.72 v 40.35 z m 21.31,-97 v 0 20 h -14.59 v 16.45 h 14.59 v 33.33 c 0,19.24 11,28.84 28,28.13 a 39.08,39.08 0 0 0 15.88,-3.16 l -5.41,-16.28 a 23.25,23.25 0 0 1 -9.35,2.23 c -6,0 -10.08,-3.54 -10.08,-10.91 v -33.32 h 21.66 v -16.45 h -21.48 v -22 z"
         id="path839" />
      <path
         class="cls-2"
         d="m 1523.21,954.8 -54,-68.26 h -16.86 v 110.07 h 20.8 V 922.4 l 58,74.21 H 1544 V 886.55 h -20.8 z m 93.25,-70.3 c -38.11,0 -56.7,29 -56.7,57.94 0,28.94 17.95,56.67 56.7,56.67 38.75,0 56.23,-28.41 56.55,-56.84 0.32,-28.73 -18.59,-57.78 -56.55,-57.78 z m 0,18.85 c 26,0 36.38,20.72 36.06,39.25 -0.32,18.06 -10.08,37.53 -36.06,37.53 -25.98,0 -35.74,-19.31 -36.23,-37.38 -0.47,-18.53 10.25,-39.4 36.23,-39.4 z m 225.69,-16.81 h -23.3 l -25.21,79.39 -27.56,-79.39 h -13.54 l -26.79,79.39 -26,-79.39 h -23.32 l 40.49,110.07 h 17.63 l 13.45,-34.28 11.51,-35.05 11.62,34.72 13.69,34.59 h 17.65 z"
         id="path841" />
      <path
         class="cls-3"
         d="m 184.32,865.36 c 39.84,-1.89 96,31.91 104.68,72.94 42.07,-32.64 111.29,-86.69 198.62,-98.24 -71,31.74 -157.1,91.43 -201.78,137 l -14.07,12.24 -4.36,-18.08 c -16.76,-70 -56.08,-93.75 -83.09,-105.86 z"
         id="path843" />
      <path
         class="cls-4"
         d="M 195.13,865.68 C 245,822.14 334,812.9 398.54,851.77 a 142.56,142.56 0 0 1 13.57,9.28 c -52,21.92 -94,54.69 -123.12,77.24 -7.88,-37.43 -55.36,-68.84 -93.87,-72.62 z"
         id="path845" />
      <path
         class="cls-5"
         d="m 408.83,1020.68 c 0.73,13.94 15.49,27.53 25.51,35.24 5,3.84 8.5,4.74 13,8.33 -16.76,12.61 -58.07,4.87 -81.59,-6.74 -8.79,-4.32 -13,-11 -25,-8.76 -134.66,24.91 -239.4,-95.17 -149,-179.92 26.38,13.14 60.43,38.48 75.73,102.38 l 4.36,18.08 14.08,-12.24 c 32.08,-32.72 85.49,-72.69 139.34,-104.4 42.6,43.51 40.23,107.32 -16.35,148 z"
         id="path847" />
    </g>
  </g>
</svg>
